<?xml version="1.0" standalone="no"?>
<!DOCTYPE svg PUBLIC "-//W3C//DTD SVG 20010904//EN"
 "http://www.w3.org/TR/2001/REC-SVG-20010904/DTD/svg10.dtd">
<svg version="1.0" xmlns="http://www.w3.org/2000/svg"
 width="4011.000000pt" height="564.000000pt" viewBox="0 0 4011.000000 564.000000"
 preserveAspectRatio="xMidYMid meet">
<metadata>
Created by potrace 1.10, written by Peter Selinger 2001-2011
</metadata>
<g transform="translate(0.000000,564.000000) scale(0.100000,-0.100000)"
fill="#000000" stroke="none">
<path d="M10920 5625 c0 -8 -9 -19 -20 -25 -25 -13 -28 -81 -5 -100 8 -7 15
-18 15 -25 0 -7 -7 -18 -15 -25 -23 -19 -19 -73 8 -98 29 -28 57 -28 91 -1
l26 20 29 -20 c38 -27 62 -26 91 3 27 29 29 69 6 95 -16 18 -16 21 4 60 17 34
18 45 9 64 -7 12 -18 26 -25 30 -8 4 -14 15 -14 22 0 9 -10 15 -25 15 -15 0
-25 -6 -25 -14 0 -8 -13 -21 -28 -29 -26 -12 -31 -12 -50 4 -12 9 -22 22 -22
28 0 6 -11 11 -25 11 -15 0 -25 -6 -25 -15z m131 -137 c10 -18 8 -24 -7 -35
-36 -26 -61 -10 -50 33 8 30 41 32 57 2z"/>
<path d="M166 5459 c-31 -24 -35 -72 -9 -101 13 -15 15 -23 7 -36 -15 -23 -45
-28 -56 -8 -12 22 -71 21 -91 -2 -21 -23 -22 -85 -2 -102 14 -12 14 -15 0 -36
-16 -25 -21 -104 -6 -104 17 0 21 -33 6 -50 -8 -9 -15 -33 -15 -53 0 -28 6
-40 25 -53 29 -19 72 -12 91 14 11 16 14 15 33 -2 25 -22 27 -42 6 -50 -22 -8
-20 -79 3 -99 24 -22 90 -23 98 -2 8 21 28 19 49 -5 17 -19 17 -21 0 -40 -10
-11 -18 -34 -18 -50 0 -62 64 -91 114 -51 24 19 25 19 48 0 30 -25 66 -24 98
1 20 15 29 17 39 9 18 -15 18 -35 -3 -69 -20 -35 -9 -69 33 -96 26 -17 28 -17
65 4 21 12 42 22 47 22 20 0 21 -32 2 -68 -25 -46 -25 -45 4 -79 24 -28 24
-29 6 -53 -18 -24 -19 -24 -40 -5 -27 24 -83 25 -110 0 -19 -18 -21 -18 -40 0
-27 24 -88 25 -105 2 -7 -9 -16 -17 -20 -17 -4 0 -13 8 -20 17 -17 23 -78 22
-105 -2 -20 -18 -21 -18 -42 2 l-21 21 22 28 c25 32 27 56 5 89 -13 19 -25 25
-54 25 -21 0 -43 -7 -50 -15 -7 -8 -18 -15 -25 -15 -7 0 -18 7 -25 15 -17 21
-73 19 -93 -3 -21 -23 -22 -85 -2 -102 14 -12 14 -15 0 -36 -21 -32 -19 -87 3
-107 23 -21 61 -22 90 -2 39 28 84 -14 47 -45 -20 -16 -19 -74 1 -94 20 -21
93 -21 100 -1 4 8 12 15 19 15 7 0 18 -7 25 -15 8 -9 30 -15 57 -15 30 0 45 5
49 15 4 8 12 15 19 15 7 0 15 -7 19 -15 4 -10 19 -15 49 -15 27 0 49 6 57 15
7 8 18 15 25 15 7 0 15 -7 19 -15 7 -20 75 -20 104 1 21 15 25 15 41 0 10 -9
33 -16 53 -16 63 0 89 61 48 113 -18 23 -19 27 -4 41 19 20 38 20 54 1 19 -23
68 -18 95 10 30 29 31 52 5 85 -25 32 -25 43 0 65 25 23 25 39 -1 81 l-21 34
21 26 c26 34 26 48 -1 84 -16 23 -30 30 -54 30 -20 0 -37 -6 -42 -16 -13 -23
-56 -14 -60 12 -2 11 4 27 13 34 8 7 15 27 15 45 0 27 -6 37 -34 54 -35 22
-57 20 -88 -6 -19 -17 -58 -9 -58 11 0 7 7 21 15 32 8 10 15 36 15 56 0 32 -5
40 -30 53 -38 20 -46 19 -81 -6 l-29 -20 -30 21 c-33 24 -67 22 -94 -5 -18
-19 -21 -19 -45 2 -20 16 -20 17 0 41 44 56 8 129 -58 119 -20 -4 -43 -13 -52
-21 -15 -14 -19 -13 -34 5 -17 19 -17 21 3 49 25 35 25 51 0 92 -18 30 -18 34
-3 50 15 17 17 17 43 -2 35 -25 70 -25 102 -1 23 19 24 19 48 0 14 -10 36 -19
50 -19 14 0 36 9 50 19 24 19 25 19 48 0 29 -23 60 -24 86 -4 24 18 52 19 62
4 4 -7 -3 -31 -16 -55 -23 -41 -23 -43 -6 -68 24 -38 60 -50 96 -31 37 19 52
19 88 -2 28 -16 31 -16 56 1 37 23 54 62 38 84 -33 46 -35 59 -13 81 27 27 27
51 0 85 -24 30 -78 36 -99 11 -7 -9 -23 -15 -34 -13 -26 4 -35 47 -12 60 27
15 20 73 -10 97 -34 27 -54 26 -88 0 l-28 -22 -28 22 c-36 26 -62 27 -85 1
-22 -25 -33 -25 -65 0 -32 25 -51 25 -85 -2 -22 -17 -31 -19 -44 -10 -41 30
-62 36 -82 24 -10 -7 -27 -17 -38 -23 -15 -10 -22 -8 -40 10 -27 27 -51 27
-85 0z m135 -99 c24 -14 24 -25 -2 -51 -16 -16 -23 -18 -35 -8 -8 6 -14 21
-14 34 0 36 16 43 51 25z m153 -12 c8 -14 6 -22 -11 -39 l-21 -21 -17 26 c-14
21 -15 29 -5 41 16 19 39 16 54 -7z m144 -6 c5 -33 -15 -54 -39 -41 -22 11
-25 39 -7 57 19 19 43 10 46 -16z m142 13 c6 -8 9 -23 5 -35 -8 -26 -43 -24
-59 3 -9 15 -7 21 8 33 25 18 31 18 46 -1z m-586 -141 c20 -8 20 -28 0 -48
-21 -21 -31 -20 -44 5 -21 37 2 59 44 43z m735 -8 c15 -18 -2 -56 -24 -56 -22
0 -47 41 -33 57 14 17 43 17 57 -1z m-733 -140 c15 -12 17 -18 8 -33 -16 -25
-43 -28 -59 -6 -11 15 -11 21 2 36 19 21 24 21 49 3z m144 -146 c25 -25 25
-32 -1 -49 -19 -11 -24 -10 -42 8 -20 20 -20 21 -2 41 22 24 21 24 45 0z m152
-155 c10 -21 8 -28 -8 -40 -17 -12 -21 -12 -38 4 -15 15 -16 22 -7 40 16 28
39 27 53 -4z m146 1 c9 -19 7 -27 -6 -39 -16 -14 -20 -14 -42 3 -24 18 -24 19
-6 39 25 27 40 26 54 -3z m152 -162 c0 -6 -6 -16 -12 -22 -19 -15 -58 4 -58
28 0 28 40 44 58 22 6 -9 12 -21 12 -28z m139 -118 c9 -11 10 -20 1 -36 -16
-29 -54 -23 -58 9 -6 37 34 55 57 27z m-719 -161 c0 -7 -9 -20 -21 -31 -20
-18 -21 -18 -35 1 -17 23 -18 37 -3 52 14 14 59 -3 59 -22z m720 10 c10 -12
10 -18 0 -30 -17 -21 -47 -19 -59 3 -19 35 33 58 59 27z m-570 -161 c0 -6 -11
-16 -24 -24 -21 -11 -27 -10 -40 3 -20 19 -20 22 1 46 15 18 17 19 39 3 13 -9
24 -22 24 -28z m128 -21 l-22 -23 -23 22 -23 22 22 23 22 23 23 -22 23 -22
-22 -23z m162 22 c0 -3 -8 -14 -17 -25 -17 -18 -19 -18 -40 0 -13 10 -23 21
-23 25 0 4 10 15 23 25 21 18 23 18 40 0 9 -11 17 -22 17 -25z m137 16 c10
-15 9 -22 -7 -36 -15 -13 -23 -14 -39 -5 -26 13 -27 35 -3 49 25 15 36 13 49
-8z"/>
<path d="M3944 5462 c-31 -25 -38 -57 -20 -94 21 -41 20 -55 -3 -67 -14 -8
-23 -6 -36 9 -23 25 -76 26 -98 2 -22 -24 -23 -90 -2 -98 21 -8 19 -28 -5 -49
-19 -17 -21 -17 -38 -2 -25 23 -85 22 -105 -1 -23 -25 -21 -75 3 -97 15 -13
17 -22 9 -36 -12 -23 -37 -24 -63 -4 -26 20 -56 19 -85 -1 -22 -16 -26 -16
-53 1 -34 20 -92 14 -102 -11 -5 -13 -9 -13 -31 2 -28 18 -33 39 -10 48 18 7
21 86 3 104 -18 18 -97 15 -104 -3 -4 -8 -12 -15 -19 -15 -7 0 -18 7 -25 15
-7 8 -29 15 -50 15 -21 0 -43 -7 -50 -15 -7 -8 -18 -15 -25 -15 -7 0 -15 7
-19 15 -7 20 -75 20 -104 -1 -21 -15 -25 -15 -41 0 -22 20 -85 21 -101 1 -7
-8 -19 -15 -27 -15 -7 0 -16 7 -19 15 -4 10 -20 15 -46 15 -66 0 -102 -65 -58
-105 24 -22 25 -38 4 -56 -14 -11 -21 -10 -46 4 -40 23 -73 21 -98 -5 -25 -27
-25 -65 -1 -98 19 -24 19 -25 0 -48 -23 -29 -24 -60 -4 -86 19 -25 19 -50 0
-66 -21 -18 -19 -62 5 -88 24 -25 72 -29 90 -7 7 8 23 15 36 15 19 0 24 -5 24
-26 0 -14 -7 -32 -15 -40 -24 -25 -18 -60 16 -88 37 -31 49 -32 82 -6 14 11
29 20 35 20 5 0 19 -9 32 -20 30 -26 55 -25 82 2 l21 21 39 -22 c42 -24 65
-22 93 9 17 19 18 19 50 -5 17 -14 38 -25 45 -25 7 0 28 11 45 25 32 23 33 24
49 6 16 -17 16 -21 -4 -59 -18 -34 -19 -44 -9 -64 7 -13 17 -26 23 -30 7 -5 6
-15 -4 -32 -16 -30 -28 -33 -45 -9 -19 25 -92 24 -111 -1 -13 -19 -14 -19 -34
-1 -27 24 -83 24 -109 1 -19 -18 -21 -18 -47 3 -32 25 -47 26 -84 4 -26 -15
-30 -15 -63 0 -43 21 -41 21 -83 1 -31 -15 -37 -15 -68 0 -52 25 -106 -4 -106
-56 0 -59 62 -86 120 -51 24 14 31 14 44 4 21 -18 20 -34 -4 -56 -24 -22 -25
-47 -4 -80 13 -20 25 -25 56 -25 22 0 46 7 55 15 14 14 18 14 39 0 30 -20 83
-19 105 1 16 15 20 15 41 0 29 -21 97 -21 104 -1 4 8 12 15 19 15 7 0 18 -7
25 -15 8 -9 30 -15 57 -15 30 0 45 5 49 15 4 8 12 15 19 15 7 0 15 -7 19 -15
7 -18 86 -21 104 -3 18 18 15 97 -3 104 -21 8 -19 23 8 44 21 18 23 18 40 -1
22 -23 65 -25 95 -3 28 19 29 72 2 106 -19 25 -19 26 0 43 24 22 27 77 5 95
-8 7 -15 20 -15 30 0 10 7 20 15 24 24 9 19 69 -8 94 -30 28 -64 28 -94 0 -22
-21 -23 -21 -43 -3 -18 17 -19 20 -5 41 24 38 19 89 -11 113 -34 27 -46 26
-82 -4 -19 -16 -33 -21 -37 -15 -3 5 -20 17 -37 26 -28 15 -32 14 -68 -10 -37
-24 -38 -25 -55 -6 -28 31 -51 33 -93 9 l-38 -22 -31 22 -31 23 -40 -24 c-39
-22 -42 -22 -59 -6 -16 17 -16 19 5 47 27 37 28 65 2 91 -24 24 -25 33 -5 50
13 10 23 10 54 -5 42 -18 78 -14 98 14 10 14 13 14 30 -1 33 -30 71 -33 105
-8 28 21 30 21 43 4 18 -25 92 -26 110 -1 15 21 25 21 40 0 17 -23 78 -22 104
1 19 17 21 17 51 -5 28 -21 34 -22 63 -10 48 20 77 25 77 13 0 -21 58 -24 90
-6 29 18 31 18 61 0 33 -20 75 -15 93 10 10 12 14 12 34 -1 25 -19 29 -40 7
-49 -20 -7 -20 -70 1 -102 15 -23 15 -26 0 -43 -21 -23 -21 -87 -1 -95 8 -3
15 -15 15 -26 0 -11 -7 -23 -15 -26 -10 -4 -15 -20 -15 -44 0 -21 7 -43 15
-50 8 -7 15 -18 15 -25 0 -7 -7 -18 -15 -25 -9 -7 -15 -29 -15 -52 0 -25 5
-41 15 -44 8 -4 15 -12 15 -19 0 -7 -7 -18 -15 -25 -9 -7 -15 -29 -15 -51 0
-62 61 -90 111 -50 24 18 25 18 47 1 25 -21 28 -36 8 -43 -23 -9 -30 -64 -12
-92 14 -21 25 -25 62 -25 30 0 46 5 50 15 8 20 24 19 38 -1 8 -10 27 -16 50
-16 20 0 45 7 55 16 22 20 37 20 45 1 8 -22 79 -20 99 3 23 25 21 71 -3 97
l-20 22 20 18 c20 18 22 18 49 2 40 -23 74 -21 99 6 27 29 28 57 3 88 -23 29
-84 32 -104 5 -12 -17 -15 -17 -50 4 -39 23 -67 21 -99 -8 -16 -14 -20 -13
-38 3 -27 24 -88 25 -105 2 -16 -23 -27 -21 -48 8 -16 22 -16 26 -3 31 24 9
30 67 11 103 -14 28 -14 34 0 53 20 29 19 67 -2 90 -17 19 -17 21 0 50 21 37
22 72 1 93 -16 15 -16 19 0 51 21 45 20 66 -3 95 -18 24 -18 25 -1 47 21 25
36 28 43 8 3 -8 20 -17 37 -21 25 -5 39 -2 61 14 l29 22 29 -22 c34 -25 85
-19 101 11 15 28 12 76 -5 90 -21 17 -19 37 6 50 16 9 24 8 37 -3 29 -24 52
-27 82 -12 36 19 49 59 29 94 -18 33 -81 41 -110 15 -17 -15 -20 -15 -43 0
-32 21 -95 21 -102 1 -4 -8 -12 -15 -19 -15 -7 0 -18 7 -25 15 -8 9 -30 15
-57 15 -30 0 -45 -5 -49 -15 -9 -22 -30 -18 -47 8 -14 22 -14 25 4 40 23 21
24 59 2 93 -15 24 -15 27 0 54 23 39 21 67 -8 95 -28 29 -52 31 -81 7z m6
-270 c0 -10 -33 -42 -44 -42 -6 0 -17 9 -24 21 -11 18 -11 24 3 39 16 18 19
18 41 3 13 -8 24 -18 24 -21z m-891 -171 c-22 -18 -26 -18 -41 -4 -22 20 -22
28 -1 53 17 20 18 20 42 -4 l25 -25 -25 -20z m149 1 l-22 -22 -23 22 -23 22
21 22 22 23 23 -22 23 -22 -21 -23z m870 1 l-22 -23 -23 22 -23 22 22 23 22
23 23 -22 23 -22 -22 -23z m-1308 39 l22 -17 -21 -19 c-33 -30 -79 5 -51 39
16 19 23 19 50 -3z m143 4 c23 -18 22 -31 -7 -49 -23 -15 -25 -15 -39 7 -14
21 -14 25 1 40 19 19 22 19 45 2z m870 0 c23 -18 22 -32 -5 -51 -21 -14 -24
-14 -40 7 -15 21 -15 24 -1 40 19 21 23 21 46 4z m152 -6 c17 -19 17 -20 -6
-39 -22 -18 -26 -18 -41 -4 -21 19 -22 29 -5 48 17 20 31 18 52 -5z m293 0
c10 -17 10 -23 -5 -39 -17 -19 -19 -19 -40 -1 -28 22 -28 29 -5 46 24 19 35
17 50 -6z m-297 -141 c20 -20 20 -22 3 -40 -20 -23 -31 -24 -50 -5 -18 19 -18
25 3 48 20 22 19 22 44 -3z m-1301 -4 c17 -21 5 -45 -23 -45 -35 0 -52 23 -32
44 20 20 39 20 55 1z m1 -146 c15 -28 -9 -54 -40 -44 -23 7 -28 34 -9 53 18
18 36 15 49 -9z m1305 0 c18 -20 18 -21 -6 -39 -24 -19 -26 -19 -43 -1 -16 16
-17 21 -6 40 17 26 31 27 55 0z m-1010 -150 c3 -6 -3 -20 -14 -32 -17 -17 -23
-18 -36 -7 -32 26 -10 78 25 59 10 -5 21 -14 25 -20z m132 19 c27 -27 2 -75
-32 -62 -26 10 -15 74 14 74 3 0 11 -5 18 -12z m140 0 c17 -17 15 -58 -3 -64
-19 -8 -45 13 -45 35 0 17 18 41 30 41 3 0 11 -5 18 -12z m742 -27 c0 -10 -7
-24 -15 -31 -30 -25 -62 29 -33 58 15 15 48 -3 48 -27z m-1165 -1 c0 -20 -6
-26 -27 -28 -25 -3 -28 0 -28 28 0 28 3 31 28 28 21 -2 27 -8 27 -28z m1162
-154 c-20 -30 -42 -31 -54 -3 -9 19 -8 28 4 40 14 14 18 14 40 0 21 -14 22
-18 10 -37z m-579 19 c3 -30 -12 -48 -36 -41 -29 9 -37 38 -15 54 24 17 47 11
51 -13z m-5 -133 c14 -16 14 -19 -3 -42 -18 -24 -19 -24 -39 -6 -26 23 -26 35
-3 52 22 17 26 17 45 -4z m581 -1 c17 -18 17 -20 -4 -41 -21 -21 -23 -21 -41
-4 -22 20 -24 30 -6 49 17 20 31 18 51 -4z m-855 -158 c3 -2 -6 -14 -19 -28
-23 -25 -24 -25 -42 -5 -22 24 -22 29 -1 52 15 17 17 17 37 1 12 -10 23 -19
25 -20z m128 -29 l-22 -23 -23 21 -22 22 22 23 22 23 22 -21 23 -22 -22 -23z
m871 -1 l-22 -23 -23 22 -23 22 22 23 22 23 23 -22 23 -22 -22 -23z m146 2
c-15 -24 -17 -24 -40 -7 -29 21 -30 29 -1 52 21 18 23 18 40 -1 16 -17 16 -21
1 -44z m-1450 36 c17 -19 17 -20 -8 -36 -21 -14 -29 -15 -41 -5 -18 15 -19 32
-3 48 17 17 32 15 52 -7z m137 9 c25 -14 24 -32 -2 -48 -18 -11 -24 -11 -39 3
-16 14 -17 21 -7 36 14 22 21 23 48 9z"/>
<path d="M7276 5459 c-30 -23 -36 -78 -11 -99 8 -7 15 -20 15 -30 0 -10 -7
-23 -15 -30 -8 -7 -15 -28 -15 -47 0 -21 6 -36 15 -39 8 -4 15 -14 15 -24 0
-10 -7 -23 -15 -30 -22 -18 -19 -73 5 -95 19 -17 19 -18 0 -43 -11 -13 -20
-37 -20 -52 0 -15 9 -39 20 -52 19 -25 19 -26 0 -43 -24 -22 -27 -77 -5 -95 8
-7 15 -20 15 -30 0 -10 -7 -20 -15 -24 -9 -3 -15 -18 -15 -39 0 -19 7 -40 15
-47 8 -7 15 -20 15 -30 0 -10 -7 -23 -15 -30 -8 -7 -15 -28 -15 -47 0 -21 6
-36 15 -39 8 -4 15 -14 15 -24 0 -10 -7 -23 -15 -30 -21 -18 -19 -70 5 -95
l20 -22 -20 -25 c-25 -33 -26 -68 0 -100 19 -25 19 -26 0 -43 -26 -23 -26 -76
-1 -99 25 -23 76 -23 101 -1 19 17 21 17 38 2 24 -22 100 -23 108 -2 4 8 12
15 19 15 7 0 18 -7 25 -15 7 -8 29 -15 50 -15 21 0 43 7 50 15 7 8 18 15 25
15 7 0 15 -7 19 -15 8 -21 84 -20 108 2 17 15 19 15 36 0 25 -23 85 -22 105 1
23 25 21 71 -3 97 l-20 22 20 18 c20 18 22 18 49 2 36 -21 56 -21 91 0 27 15
30 15 54 0 45 -30 89 -20 112 25 15 28 14 32 -10 68 -24 37 -24 38 -6 55 18
16 20 16 49 -4 36 -26 61 -27 88 -1 33 30 36 55 14 98 -18 34 -18 42 -6 52 25
21 28 50 9 86 -18 33 -18 36 -1 65 22 39 21 51 -3 82 l-20 25 21 36 c22 38 20
64 -8 92 -13 13 -14 20 -5 35 7 10 17 28 24 38 12 20 6 41 -24 82 -9 14 -8 20
5 34 47 46 21 115 -42 115 -21 0 -46 -7 -57 -15 -26 -20 -33 -19 -45 9 -10 20
-8 29 9 51 21 27 20 42 -6 83 -17 26 -72 31 -92 7 -7 -8 -20 -15 -30 -15 -10
0 -23 7 -30 15 -17 20 -76 19 -88 -1 -13 -23 -56 -14 -60 12 -2 11 4 27 13 34
25 21 19 75 -11 99 -34 27 -54 26 -88 0 l-28 -22 -28 22 c-37 26 -50 26 -85
-1 -22 -17 -31 -19 -44 -10 -52 38 -70 38 -123 0 -14 -10 -21 -9 -41 10 -29
28 -50 28 -87 1 l-28 -22 -28 22 c-34 26 -54 27 -88 0z m139 -103 c21 -15 15
-40 -14 -56 -18 -9 -23 -7 -33 14 -8 20 -8 29 2 41 15 18 21 19 45 1z m145 -1
c14 -17 5 -51 -15 -59 -22 -8 -46 33 -34 56 12 22 32 23 49 3z m150 0 c10 -12
9 -20 -4 -40 -18 -27 -42 -24 -51 6 -12 38 30 64 55 34z m140 0 c16 -19 3 -55
-20 -55 -11 0 -25 10 -31 22 -10 18 -8 24 7 35 23 17 29 16 44 -2z m-420 -160
c0 -7 -9 -20 -21 -31 -20 -18 -21 -18 -39 6 -17 22 -17 26 -3 42 12 13 20 15
39 6 13 -6 24 -17 24 -23z m182 -5 c12 0 34 9 48 19 24 19 25 19 48 0 31 -24
59 -24 99 0 31 19 31 19 49 0 21 -23 56 -24 89 -3 26 17 65 11 65 -10 0 -7 -9
-25 -20 -39 -27 -34 -25 -53 9 -88 35 -35 49 -36 85 -8 25 20 28 20 52 4 l25
-16 -21 -26 c-25 -33 -26 -68 0 -101 l20 -25 -20 -22 c-24 -25 -26 -63 -5 -91
19 -25 19 -42 0 -60 -8 -9 -15 -28 -15 -43 0 -16 7 -34 15 -41 8 -7 15 -20 15
-30 0 -10 -7 -23 -15 -30 -20 -17 -19 -76 1 -88 20 -11 15 -41 -8 -56 -13 -8
-21 -6 -36 7 -29 26 -77 22 -101 -9 -26 -34 -27 -58 0 -85 41 -41 -7 -80 -55
-44 -27 20 -49 19 -80 -6 -26 -21 -28 -21 -47 -3 -26 23 -87 24 -104 1 -15
-21 -25 -21 -40 0 -9 12 -27 18 -55 18 -28 0 -46 -6 -55 -18 -17 -23 -29 -21
-45 7 -11 21 -10 27 3 40 27 28 30 55 8 92 l-21 35 22 29 c21 29 21 30 3 70
-17 39 -17 41 0 80 18 40 18 41 -3 70 l-22 29 21 35 c22 38 19 64 -8 92 -13
13 -14 20 -5 35 7 10 18 28 24 39 10 16 10 24 0 40 -6 11 -17 29 -24 39 -9 15
-8 22 5 35 28 28 30 54 7 93 -19 33 -20 37 -4 54 16 18 17 18 44 -1 16 -11 39
-20 52 -20z m536 17 c9 -10 7 -19 -4 -35 -19 -28 -40 -28 -54 -1 -20 37 31 69
58 36z m-735 -141 c23 -18 22 -31 -7 -49 -23 -15 -25 -15 -39 7 -14 21 -14 25
1 40 19 19 22 19 45 2z m870 0 c23 -18 22 -31 -7 -49 -23 -15 -25 -15 -39 7
-14 21 -14 25 1 40 19 19 22 19 45 2z m-871 -143 c24 -21 23 -35 -3 -51 -18
-11 -24 -11 -39 3 -18 16 -18 19 -3 41 18 28 21 29 45 7z m870 0 c24 -21 23
-35 -3 -51 -18 -11 -24 -11 -39 3 -18 16 -18 19 -3 41 18 28 21 29 45 7z
m-866 -154 c18 -20 18 -21 -1 -35 -37 -27 -62 -12 -51 32 8 30 27 31 52 3z
m868 5 c22 -22 20 -33 -9 -46 -33 -15 -50 1 -41 36 7 29 27 33 50 10z m-856
-167 c5 -22 -35 -42 -54 -26 -17 14 -18 41 -2 57 14 14 51 -6 56 -31z m870 0
c5 -22 -35 -42 -54 -26 -17 14 -18 41 -2 57 14 14 51 -6 56 -31z m-884 -120
c15 -11 17 -17 7 -35 -16 -30 -49 -28 -57 2 -11 43 14 59 50 33z m870 0 c15
-11 17 -17 7 -35 -16 -30 -49 -28 -57 2 -11 43 14 59 50 33z m-871 -141 c22
-17 22 -29 -4 -52 -20 -18 -21 -18 -39 6 -17 23 -17 26 -3 42 19 21 23 21 46
4z m736 -9 c15 -18 -9 -50 -34 -46 -27 6 -44 37 -25 49 21 14 46 12 59 -3z
m-719 -161 c0 -7 -11 -19 -25 -26 -22 -12 -27 -11 -39 5 -12 16 -12 22 1 42
14 21 16 21 39 6 13 -8 24 -21 24 -27z m129 -22 l-22 -23 -23 22 -23 22 21 23
22 22 23 -22 23 -22 -21 -22z m149 -1 l-22 -23 -23 22 -23 22 22 23 22 23 23
-22 23 -22 -22 -23z m145 44 c13 -20 13 -26 1 -42 -12 -16 -17 -17 -39 -5 -31
17 -32 33 -2 53 12 9 23 16 23 16 1 1 8 -9 17 -22z"/>
<path d="M1170 5165 c-18 -21 -15 -87 4 -101 9 -6 16 -15 16 -19 0 -4 -7 -13
-16 -19 -25 -19 -21 -86 7 -109 27 -21 71 -17 101 9 16 16 19 15 37 -7 19 -23
19 -24 0 -48 -23 -29 -24 -50 -3 -95 16 -32 16 -36 0 -51 -37 -37 -3 -115 50
-115 14 0 37 9 51 20 20 15 29 17 39 9 18 -15 18 -31 -3 -74 -16 -34 -16 -36
5 -64 l21 -29 -22 -41 c-21 -38 -21 -42 -5 -68 25 -43 60 -51 106 -25 35 19
40 20 54 5 15 -14 14 -19 -9 -54 -26 -39 -23 -57 13 -100 12 -14 11 -18 -5
-33 -18 -17 -22 -17 -43 -2 -74 52 -159 -22 -108 -94 l21 -30 -20 -26 c-26
-34 -26 -48 0 -91 20 -32 20 -36 5 -51 -14 -14 -19 -15 -39 -3 -12 8 -30 19
-40 25 -13 8 -24 7 -44 -4 -55 -31 -54 -106 2 -132 25 -11 45 -6 86 23 13 10
20 8 37 -9 28 -28 55 -28 92 -1 l28 22 28 -22 c34 -26 54 -27 88 0 30 24 37
85 11 95 -8 4 -15 16 -15 29 0 12 7 28 15 35 21 18 19 60 -6 86 l-21 22 21 21
c25 25 39 27 47 6 10 -25 82 -20 105 8 24 29 24 48 -1 80 -11 14 -20 28 -20
32 0 4 9 18 20 32 25 33 25 54 -1 87 -39 50 -1 74 60 39 28 -16 33 -17 58 -3
39 22 52 63 30 99 -21 36 -21 55 -2 71 19 16 19 64 0 80 -18 15 -19 42 -4 57
9 9 21 7 48 -9 47 -27 85 -19 106 22 15 30 12 53 -12 81 -12 14 -11 21 7 52
23 38 21 65 -7 93 -13 13 -14 19 -3 40 16 28 28 30 45 7 15 -21 88 -24 107 -5
18 18 16 87 -4 109 -15 17 -15 20 3 42 40 49 13 111 -50 111 -22 0 -44 -6 -51
-15 -7 -8 -18 -15 -25 -15 -7 0 -15 7 -19 15 -7 18 -86 21 -104 3 -18 -18 -15
-97 3 -104 8 -4 15 -12 15 -19 0 -7 -7 -18 -15 -25 -8 -7 -15 -29 -15 -50 0
-21 7 -43 15 -50 21 -17 19 -33 -5 -48 -18 -11 -25 -10 -47 8 -33 25 -54 25
-87 -1 -30 -23 -36 -78 -11 -99 8 -7 15 -20 15 -30 0 -10 -7 -20 -15 -24 -20
-7 -20 -70 0 -86 9 -7 15 -23 13 -34 -4 -26 -42 -33 -64 -12 -20 20 -73 21
-80 1 -4 -8 -16 -15 -29 -15 -12 0 -28 7 -35 15 -17 21 -60 19 -84 -4 -16 -14
-27 -17 -43 -10 -26 10 -30 31 -8 49 20 17 19 79 -1 101 -15 17 -15 20 0 43 9
14 16 41 16 60 0 30 -5 38 -31 52 -26 13 -36 13 -60 4 -16 -7 -29 -16 -29 -21
0 -16 -27 -9 -45 11 -18 20 -18 21 1 34 26 19 26 93 0 112 -18 13 -18 15 -3
31 26 29 31 70 13 98 -13 20 -25 25 -55 25 -22 0 -44 -6 -51 -15 -7 -8 -18
-15 -25 -15 -7 0 -15 7 -19 15 -7 20 -89 20 -106 0z m1018 -142 l-22 -23 -22
21 -23 22 22 23 22 23 23 -21 22 -22 -22 -23z m-866 40 c18 -16 18 -17 -4 -40
l-22 -23 -23 22 c-21 20 -22 23 -6 40 20 22 31 23 55 1z m147 -294 c11 -19 10
-24 -6 -40 -17 -18 -19 -18 -43 1 -24 18 -24 19 -6 39 24 27 38 26 55 0z m577
0 c18 -20 18 -21 -1 -35 -37 -27 -62 -12 -51 32 8 30 27 31 52 3z m-431 -288
c14 -46 -34 -69 -59 -28 -9 15 -7 21 8 33 27 19 43 18 51 -5z m144 5 c14 -17
-1 -56 -22 -56 -31 0 -51 53 -24 63 22 9 34 7 46 -7z m135 8 c29 -11 12 -64
-21 -64 -21 0 -36 39 -22 56 13 16 20 17 43 8z m-128 -159 c8 -20 -13 -45 -37
-45 -24 0 -42 33 -27 48 17 17 58 15 64 -3z m-2 -147 c8 -14 7 -21 -6 -34 -16
-16 -19 -16 -43 0 -26 17 -26 18 -9 37 21 23 42 21 58 -3z m-151 -142 c14 -21
14 -25 0 -39 -12 -12 -21 -13 -39 -5 -28 13 -30 25 -7 50 21 24 28 23 46 -6z
m2 -147 c10 -31 -16 -55 -44 -40 -24 13 -27 31 -9 49 19 19 46 14 53 -9z"/>
<path d="M4799 5164 c-19 -23 -17 -84 4 -99 22 -16 21 -23 -5 -45 -22 -17 -23
-17 -47 1 -50 40 -111 12 -111 -50 0 -22 6 -44 15 -51 21 -17 19 -33 -5 -48
-18 -11 -25 -10 -47 8 -32 25 -48 25 -84 -1 -35 -24 -37 -54 -9 -101 19 -34
19 -34 0 -51 -24 -20 -26 -69 -5 -87 8 -7 15 -20 15 -30 0 -10 -7 -23 -15 -30
-8 -7 -15 -25 -15 -41 0 -15 7 -34 15 -43 19 -18 19 -37 0 -62 -23 -31 -18
-70 11 -93 33 -26 55 -26 85 -2 18 15 28 16 46 8 26 -12 28 -24 8 -51 -24 -32
-19 -83 10 -102 29 -19 90 -12 99 12 5 13 9 13 31 -3 29 -21 31 -32 8 -48 -21
-15 -23 -76 -4 -99 18 -21 99 -22 107 -1 4 8 12 15 19 15 7 0 15 -7 19 -15 4
-10 19 -15 49 -15 27 0 49 6 57 15 7 8 18 15 25 15 7 0 15 -7 19 -15 7 -20 75
-20 104 1 21 15 25 15 43 -2 26 -24 79 -21 101 7 23 28 23 61 -1 90 -14 17
-17 29 -10 41 12 23 29 23 67 1 38 -22 80 -10 102 29 13 25 13 30 -2 55 -23
39 -59 48 -103 28 -33 -16 -37 -16 -70 -1 -38 19 -72 14 -92 -13 -10 -14 -13
-14 -30 1 -33 30 -71 33 -104 9 l-29 -22 -29 22 c-22 16 -36 19 -61 14 -17 -4
-34 -13 -37 -21 -7 -19 -23 -18 -38 3 -17 23 -78 22 -105 -2 -20 -18 -21 -18
-42 2 l-21 21 22 28 c26 33 26 54 1 97 -19 31 -19 35 -4 48 14 11 22 10 55 -9
43 -25 66 -23 94 8 17 19 18 19 47 -5 37 -31 51 -31 92 0 33 25 33 25 51 5 28
-31 52 -33 90 -10 l34 21 31 -23 31 -23 40 23 39 23 39 -23 c37 -21 39 -21 65
-4 45 29 52 58 26 101 l-23 37 22 28 c26 36 26 50 0 84 l-21 26 22 36 c26 41
18 71 -25 100 -25 16 -29 16 -61 1 -42 -21 -58 -21 -73 -3 -8 10 -6 19 9 39
28 35 26 71 -6 96 -32 25 -67 27 -88 5 -34 -33 -85 9 -53 44 22 24 22 75 -1
95 -24 22 -90 23 -98 2 -4 -8 -12 -15 -19 -15 -7 0 -18 7 -25 15 -8 9 -30 15
-57 15 -30 0 -45 -5 -49 -15 -4 -8 -12 -15 -19 -15 -7 0 -15 7 -19 15 -8 21
-89 20 -107 -1z m311 -119 c0 -3 -8 -14 -17 -25 -17 -18 -19 -18 -40 0 -13 10
-23 21 -23 25 0 4 10 15 23 25 21 18 23 18 40 0 9 -11 17 -22 17 -25z m-158
18 c18 -16 18 -17 -4 -40 l-22 -23 -23 22 c-21 20 -22 23 -6 40 20 22 31 23
55 1z m-162 -132 c0 -5 13 -14 28 -20 33 -14 81 -5 89 15 6 16 33 19 33 4 0
-15 51 -32 76 -26 13 4 30 13 38 21 14 14 18 14 45 -6 33 -24 71 -21 104 9 17
15 20 15 37 -8 18 -24 18 -25 -6 -53 -29 -35 -30 -38 -2 -87 19 -32 21 -41 10
-52 -11 -11 -20 -9 -53 10 -43 25 -66 23 -94 -8 -17 -19 -18 -19 -53 5 -45 31
-48 31 -86 1 l-32 -24 -29 24 c-37 30 -42 30 -87 -1 -34 -23 -37 -23 -51 -7
-15 16 -15 21 3 50 25 41 25 63 -1 96 -20 26 -20 28 -4 46 19 21 35 26 35 11z
m-139 -151 c28 -16 24 -48 -7 -56 -35 -9 -51 8 -36 41 13 28 16 29 43 15z
m738 -12 c11 -29 -5 -50 -33 -46 -21 3 -32 28 -22 54 9 22 46 17 55 -8z m-579
-157 c0 -10 -7 -24 -15 -31 -30 -25 -62 29 -33 58 15 15 48 -3 48 -27z m146 7
c9 -29 -20 -57 -44 -42 -23 15 -26 38 -7 57 19 19 42 12 51 -15z m144 -8 c0
-28 -27 -45 -45 -30 -20 17 -19 47 2 59 21 11 43 -3 43 -29z m150 -6 c0 -23
-27 -36 -49 -24 -28 14 -27 48 2 59 23 9 47 -9 47 -35z m-582 8 c2 -16 -3 -25
-20 -31 -30 -12 -53 8 -43 38 10 31 59 26 63 -7z m720 -4 c3 -25 0 -28 -27
-28 -26 0 -31 4 -31 23 0 30 9 39 35 35 13 -2 21 -12 23 -30z m-727 -118 c13
0 11 -34 -3 -48 -18 -18 -36 -15 -48 9 -13 24 5 53 27 44 8 -3 19 -5 24 -5z
m287 -337 l-22 -23 -23 22 -23 22 22 23 22 23 23 -22 23 -22 -22 -23z m162 22
c0 -3 -8 -14 -17 -25 -17 -18 -19 -18 -40 0 -13 10 -23 21 -23 25 0 4 10 15
23 25 21 18 23 18 40 0 9 -11 17 -22 17 -25z m137 16 c10 -15 9 -22 -7 -36
-15 -13 -23 -14 -39 -5 -26 13 -27 35 -3 49 25 15 36 13 49 -8z"/>
<path d="M5670 5165 c-18 -21 -15 -87 4 -101 20 -14 20 -24 0 -38 -22 -16 -22
-80 -1 -104 19 -21 22 -42 7 -42 -6 0 -15 -12 -21 -26 -7 -21 -5 -36 10 -67
17 -35 18 -43 7 -57 -25 -27 -26 -54 -7 -91 18 -33 18 -38 4 -52 -21 -21 -21
-72 0 -95 15 -17 15 -21 -4 -59 -15 -31 -17 -46 -10 -67 6 -14 15 -26 21 -26
15 0 12 -21 -7 -42 -21 -24 -21 -88 1 -104 9 -6 16 -15 16 -19 0 -4 -7 -13
-16 -19 -20 -15 -23 -78 -5 -100 18 -21 99 -22 107 -1 4 8 12 15 19 15 7 0 15
-7 19 -15 4 -10 20 -15 50 -15 37 0 48 4 62 25 18 28 11 83 -12 92 -16 6 -19
33 -4 33 15 0 32 51 26 76 -4 13 -13 30 -22 39 -15 15 -15 17 2 36 24 26 23
82 -1 109 -18 20 -19 23 -3 34 27 20 32 61 12 95 -18 30 -18 32 0 61 20 34 15
85 -10 94 -12 4 -11 12 7 45 22 42 19 71 -8 103 -13 14 -12 19 6 37 l21 21 29
-21 c33 -24 72 -20 104 9 18 16 20 16 31 0 19 -26 62 -33 91 -14 30 20 49 20
65 1 10 -12 8 -20 -9 -41 -27 -34 -27 -57 1 -94 l22 -30 -22 -23 c-25 -27 -29
-69 -7 -87 8 -7 15 -21 15 -32 0 -11 -7 -26 -15 -34 -21 -21 -19 -57 4 -78 20
-18 18 -48 -5 -67 -20 -17 -17 -52 7 -83 l20 -26 -20 -26 c-26 -34 -27 -66 -1
-89 11 -10 20 -23 20 -30 0 -7 -9 -20 -20 -30 -24 -22 -25 -47 -4 -80 13 -20
25 -25 57 -25 26 0 44 6 52 17 12 16 14 16 38 0 38 -25 92 -22 111 5 21 30 20
54 -3 87 -19 26 -19 27 0 51 24 32 24 68 0 100 -19 24 -19 25 0 48 23 29 24
60 4 86 -19 25 -19 50 0 66 8 7 15 25 15 40 0 15 -7 33 -15 40 -8 7 -15 20
-15 30 0 10 7 23 15 30 8 7 15 25 15 40 0 15 -7 33 -15 40 -19 16 -19 41 0 66
20 26 19 57 -4 86 -18 23 -18 25 -2 47 l18 24 31 -23 c33 -25 72 -22 105 7 16
15 18 15 31 -3 10 -13 26 -19 56 -19 30 0 46 6 56 19 13 19 14 19 34 1 20 -18
27 -45 11 -45 -5 0 -14 -13 -21 -30 -11 -26 -10 -34 9 -65 l21 -36 -22 -29
c-21 -29 -21 -30 -3 -70 17 -39 17 -41 0 -80 -18 -40 -18 -41 3 -70 l22 -29
-21 -36 c-19 -31 -20 -39 -9 -65 7 -17 16 -30 21 -30 15 0 10 -20 -12 -51 -23
-32 -20 -66 6 -93 19 -18 19 -24 0 -42 -24 -25 -28 -60 -10 -88 14 -21 25 -26
58 -26 24 0 48 7 59 17 17 15 19 15 36 0 25 -23 85 -22 105 1 23 25 21 75 -3
97 -19 17 -19 18 0 43 26 32 25 67 0 100 l-20 25 20 22 c24 25 26 77 5 95 -8
7 -15 20 -15 30 0 10 7 20 15 24 9 3 15 18 15 39 0 19 -7 40 -15 47 -8 7 -15
20 -15 30 0 10 7 23 15 30 8 7 15 28 15 47 0 21 -6 36 -15 39 -8 4 -15 14 -15
24 0 10 7 23 15 30 22 18 19 73 -5 95 -19 18 -19 18 0 45 43 60 9 127 -58 116
-20 -3 -40 -12 -44 -21 -8 -13 -12 -13 -33 1 -28 18 -32 39 -10 48 20 7 20 80
-1 100 -20 21 -93 21 -100 1 -4 -8 -12 -15 -19 -15 -7 0 -18 7 -25 15 -7 9
-29 15 -51 15 -63 0 -90 -62 -50 -111 19 -24 19 -24 -1 -46 -21 -22 -21 -22
-46 -3 -31 25 -58 25 -99 1 l-31 -20 -15 22 c-13 20 -13 25 4 46 23 28 24 59
3 89 -19 27 -73 30 -110 6 -23 -15 -26 -15 -43 0 -23 21 -87 21 -95 1 -3 -8
-12 -15 -19 -15 -8 0 -20 7 -27 15 -7 9 -29 15 -50 15 -30 0 -43 -6 -59 -26
-27 -34 -26 -47 3 -81 22 -25 22 -29 9 -50 l-15 -23 -33 20 c-40 25 -66 25
-96 1 -24 -18 -25 -18 -47 -1 -25 21 -28 36 -8 43 23 9 30 64 12 92 -13 19
-25 25 -55 25 -22 0 -44 -6 -51 -15 -7 -8 -18 -15 -25 -15 -7 0 -15 7 -19 15
-7 20 -89 20 -106 0z m148 -142 l-22 -23 -23 22 -23 22 22 23 22 23 23 -22 23
-22 -22 -23z m1032 19 c0 -5 -8 -16 -17 -25 -16 -14 -20 -14 -42 4 l-24 20 23
24 c23 25 24 25 42 5 10 -10 18 -23 18 -28z m-586 16 c7 -12 6 -21 -3 -32 -17
-21 -35 -20 -56 1 -16 16 -16 18 5 35 26 21 39 20 54 -4z m136 4 l22 -17 -21
-19 c-33 -30 -79 5 -51 39 16 19 23 19 50 -3z m-580 -144 c17 -21 17 -25 3
-40 -20 -22 -28 -22 -52 -1 -18 15 -19 17 -3 39 21 29 29 30 52 2z m1163 -2
c15 -22 15 -25 -3 -41 -15 -14 -21 -14 -39 -3 -25 16 -26 26 -4 50 21 24 28
23 46 -6z m-579 -5 c17 -19 17 -20 -9 -37 -24 -15 -28 -16 -42 -2 -19 20 -9
58 16 58 10 0 26 -9 35 -19z m-582 -146 c10 -21 8 -28 -8 -40 -17 -12 -21 -12
-38 4 -15 15 -16 22 -7 40 16 28 39 27 53 -4z m576 13 c19 -19 14 -46 -9 -53
-31 -10 -55 16 -40 44 13 24 31 27 49 9z m588 -12 c11 -44 -14 -59 -51 -32
-19 14 -19 15 -1 35 25 28 44 27 52 -3z m-1161 -147 c7 -22 -10 -49 -31 -49
-7 0 -18 9 -24 21 -9 16 -8 24 5 39 20 22 42 17 50 -11z m1165 -9 c0 -26 -21
-39 -47 -29 -29 11 -29 33 -1 53 25 18 48 6 48 -24z m-585 0 c0 -19 -6 -26
-24 -28 -27 -4 -41 12 -33 40 3 14 12 18 31 16 20 -2 26 -8 26 -28z m-584
-159 c-15 -27 -37 -27 -51 0 -9 16 -8 25 6 40 17 19 18 19 37 1 16 -16 17 -23
8 -41z m580 39 c13 0 11 -34 -3 -48 -18 -18 -36 -15 -48 9 -13 24 5 53 27 44
8 -3 19 -5 24 -5z m587 -15 c3 -30 -12 -48 -36 -41 -29 9 -37 38 -15 54 24 17
47 11 51 -13z m-1168 -132 c18 -17 18 -19 0 -40 -23 -28 -27 -28 -50 -1 -17
21 -17 24 -2 40 22 22 29 22 52 1z m1163 -1 c14 -16 14 -19 -3 -42 -18 -24
-19 -24 -39 -6 -26 23 -26 35 -3 52 22 17 26 17 45 -4z m-574 -6 c10 -11 7
-19 -10 -35 -13 -12 -26 -21 -31 -21 -12 0 -30 40 -24 56 7 18 50 18 65 0z
m-591 -183 l-22 -23 -23 22 -23 22 22 23 22 23 23 -22 23 -22 -22 -23z m586
38 c17 -19 17 -20 -8 -36 -21 -14 -29 -15 -41 -5 -18 15 -19 32 -3 48 17 17
32 15 52 -7z m582 1 c9 -14 8 -22 -2 -37 -12 -16 -17 -17 -39 -5 -29 16 -32
35 -7 49 25 15 36 13 48 -7z"/>
<path d="M8862 5157 c-27 -29 -28 -47 -2 -80 24 -30 25 -41 4 -58 -13 -10 -20
-10 -46 5 -52 31 -117 4 -118 -49 0 -11 9 -34 19 -52 19 -30 19 -32 1 -48 -18
-16 -21 -16 -49 4 -33 24 -41 25 -74 10 -42 -19 -51 -55 -28 -102 17 -34 18
-44 7 -57 -25 -29 -27 -52 -6 -85 l21 -34 -20 -37 c-21 -38 -21 -38 -1 -71 20
-33 20 -35 1 -71 -20 -41 -15 -74 17 -98 25 -19 50 -17 83 7 28 20 31 20 49 4
18 -16 18 -18 -1 -48 -24 -41 -24 -68 1 -95 25 -26 62 -28 100 -5 24 14 31 14
44 4 21 -17 20 -28 -4 -58 -25 -32 -25 -51 -1 -80 23 -28 85 -31 113 -6 17 15
19 15 36 0 24 -22 80 -22 103 -1 16 15 20 15 41 0 29 -21 97 -21 104 -1 8 19
28 19 44 0 9 -11 27 -15 59 -13 44 3 46 5 55 41 8 31 6 42 -11 66 l-21 28 20
21 21 20 28 -21 c24 -17 35 -19 66 -11 28 7 38 15 44 37 10 39 -5 75 -37 87
-30 12 -73 3 -81 -16 -7 -18 -29 -18 -36 0 -3 8 -20 17 -37 21 -25 5 -39 2
-62 -15 -28 -21 -30 -21 -49 -4 -26 24 -82 23 -109 -1 -20 -18 -23 -18 -33 -4
-20 27 -54 32 -92 13 -33 -15 -37 -15 -70 0 -37 18 -72 14 -90 -11 -8 -11 -14
-11 -33 2 -26 19 -28 31 -7 51 8 9 15 30 15 48 0 19 -7 39 -15 46 -22 18 -18
47 6 53 13 4 33 -2 51 -16 l29 -22 40 23 39 23 39 -23 40 -23 31 23 31 23 34
-21 c38 -23 62 -21 90 10 18 20 18 20 51 -5 41 -31 49 -31 89 0 32 24 33 24
50 5 26 -29 51 -33 84 -14 38 22 46 55 25 99 -15 32 -15 38 -1 68 17 36 13 75
-11 92 -12 9 -10 17 8 47 25 43 19 80 -17 103 -27 18 -62 14 -87 -10 -18 -19
-21 -19 -45 2 -20 16 -20 17 0 41 44 56 8 129 -58 119 -20 -4 -43 -13 -52 -21
-15 -14 -19 -13 -34 4 -21 25 -21 28 -2 46 44 44 18 114 -42 114 -18 0 -45 -7
-59 -16 -23 -15 -26 -15 -43 0 -22 20 -79 21 -101 1 -17 -15 -50 -11 -50 6 0
5 -17 9 -38 9 -27 0 -45 -7 -60 -23z m294 -91 c15 -12 17 -18 8 -33 -16 -25
-43 -28 -59 -6 -11 15 -11 21 2 36 19 21 24 21 49 3z m-138 -8 c15 -15 -3 -48
-27 -48 -24 0 -45 25 -37 45 6 18 47 20 64 3z m-115 -153 c17 -5 36 -1 56 11
30 18 32 18 61 0 34 -20 85 -15 94 10 5 12 12 11 43 -6 47 -25 64 -25 96 0
l26 21 21 -21 c21 -21 21 -22 4 -41 -24 -26 -23 -82 1 -109 19 -21 19 -22 -5
-40 -24 -18 -26 -18 -45 -1 -35 32 -44 33 -92 9 -35 -18 -47 -20 -51 -10 -2 7
-15 18 -29 23 -20 7 -33 5 -59 -11 l-33 -21 -40 23 -40 23 -31 -23 c-19 -15
-38 -21 -50 -17 -24 7 -26 37 -5 55 8 7 15 27 15 45 0 18 -7 38 -15 45 -21 18
-19 36 7 55 20 13 24 13 34 1 5 -8 22 -18 37 -21z m-175 -139 c9 -19 7 -27 -6
-39 -16 -14 -20 -14 -42 3 -24 18 -24 19 -6 39 25 27 40 26 54 -3z m723 3 c9
-18 8 -25 -8 -41 -19 -18 -20 -18 -37 1 -14 15 -15 24 -6 40 14 27 36 27 51 0z
m-721 -159 c0 -10 -7 -23 -16 -30 -13 -11 -18 -10 -36 7 l-20 21 22 22 c17 17
24 19 36 9 8 -6 14 -19 14 -29z m435 0 c0 -32 -41 -47 -55 -20 -8 14 -8 26 0
40 14 27 55 12 55 -20z m133 28 c28 -28 -3 -83 -33 -58 -8 7 -15 20 -15 29 0
17 18 41 30 41 3 0 11 -5 18 -12z m146 -7 c14 -15 15 -24 6 -40 -23 -43 -72
-10 -52 34 14 30 23 31 46 6z m-570 -6 c9 -25 -5 -45 -30 -45 -14 0 -27 7 -30
15 -10 25 4 45 30 45 13 0 26 -7 30 -15z m141 -15 c0 -20 -6 -26 -27 -28 -25
-3 -28 0 -28 28 0 28 3 31 28 28 21 -2 27 -8 27 -28z m-290 -121 c10 -16 -4
-59 -19 -59 -7 0 -21 9 -32 21 -18 20 -18 21 1 35 22 17 41 18 50 3z m595
-312 c0 -5 -10 -17 -22 -27 -22 -18 -24 -18 -40 0 -22 23 -22 25 -1 49 15 18
17 19 39 3 13 -9 24 -21 24 -25z m-305 16 c16 -16 16 -18 -5 -35 -36 -29 -81
7 -48 40 17 17 34 15 53 -5z m136 7 c25 -14 24 -36 -2 -50 -16 -9 -24 -8 -39
5 -16 14 -17 21 -7 36 14 22 21 23 48 9z"/>
<path d="M9876 5158 c-22 -31 -20 -60 5 -92 17 -21 19 -29 9 -41 -16 -19 -32
-19 -68 2 -23 13 -37 15 -57 8 -36 -13 -63 -59 -49 -83 6 -9 17 -26 24 -38 11
-18 10 -25 -11 -53 l-24 -32 23 -40 23 -39 -22 -29 c-23 -32 -20 -55 12 -89
23 -26 71 -29 89 -7 7 9 23 15 34 13 26 -4 33 -40 11 -58 -22 -18 -19 -66 7
-89 34 -32 57 -35 89 -12 l29 22 39 -23 40 -23 32 24 33 24 38 -22 c42 -24 65
-22 93 9 17 19 18 19 47 -5 37 -31 51 -31 92 0 31 24 34 24 49 7 15 -16 15
-20 -3 -50 -25 -41 -25 -63 0 -95 18 -22 19 -29 8 -47 -16 -25 -22 -25 -57 1
-22 16 -36 19 -61 14 -17 -4 -34 -13 -37 -21 -7 -19 -23 -18 -38 3 -17 23 -78
22 -105 -2 -18 -16 -22 -17 -37 -3 -33 29 -61 31 -100 8 -32 -19 -39 -20 -48
-7 -18 25 -52 29 -90 11 -33 -15 -37 -15 -70 0 -42 20 -78 13 -99 -20 -22 -33
-20 -51 9 -79 28 -29 62 -32 104 -8 28 17 31 17 47 1 16 -15 15 -18 -5 -44
-25 -32 -27 -61 -5 -92 18 -27 78 -30 105 -6 16 15 20 15 41 0 29 -21 97 -21
104 -1 4 8 12 15 19 15 7 0 18 -7 25 -15 8 -9 30 -15 57 -15 30 0 45 5 49 15
4 8 12 15 19 15 7 0 15 -7 19 -15 4 -10 19 -15 49 -15 27 0 49 6 57 15 7 8 18
15 25 15 7 0 15 -7 19 -15 7 -20 80 -20 100 1 20 20 21 78 1 94 -22 18 -18 39
9 52 20 8 28 7 41 -6 37 -37 115 -3 115 50 0 14 -9 37 -20 52 l-20 25 20 22
c24 25 26 67 5 85 -8 7 -15 21 -15 32 0 11 7 26 15 34 22 23 18 67 -8 92 -29
27 -64 28 -91 3 -16 -14 -27 -17 -43 -10 -26 10 -31 46 -8 55 10 4 15 20 15
44 0 30 -6 43 -26 59 -34 27 -46 26 -81 -3 l-28 -24 -35 24 c-43 30 -48 30
-85 0 l-29 -24 -32 24 c-38 30 -41 30 -86 -1 -35 -24 -36 -24 -53 -5 -28 31
-52 33 -91 9 -32 -19 -37 -20 -51 -6 -13 13 -12 19 8 55 l24 41 -24 31 c-19
27 -21 36 -12 56 l11 25 40 -21 c49 -25 61 -25 94 1 24 19 27 19 42 5 8 -9 25
-18 38 -22 25 -6 76 11 76 26 0 16 22 12 35 -7 18 -25 92 -24 110 1 13 17 15
17 43 -4 34 -25 72 -22 105 8 18 16 20 16 31 -1 21 -28 67 -32 99 -7 36 29 36
71 1 99 -34 26 -68 27 -92 1 -17 -18 -20 -18 -40 -4 -26 18 -28 37 -7 54 21
17 19 73 -3 93 -24 22 -90 23 -98 2 -4 -8 -12 -15 -19 -15 -7 0 -18 7 -25 15
-7 8 -29 15 -50 15 -21 0 -43 -7 -50 -15 -7 -8 -18 -15 -25 -15 -7 0 -15 7
-19 15 -4 10 -19 15 -49 15 -27 0 -49 -6 -57 -15 -7 -8 -18 -15 -25 -15 -7 0
-15 7 -19 15 -7 20 -70 20 -102 -1 -23 -15 -26 -15 -43 0 -27 24 -86 21 -105
-6z m442 -135 l-22 -23 -23 22 -23 22 22 23 22 23 23 -22 23 -22 -22 -23z
m162 19 c0 -5 -8 -16 -17 -25 -16 -14 -20 -14 -40 3 -13 10 -23 21 -23 25 0 4
10 15 23 25 21 18 23 18 40 0 9 -11 17 -23 17 -28z m-455 24 c11 -8 16 -19 12
-30 -10 -25 -36 -30 -57 -11 -19 17 -19 19 -4 37 20 22 25 22 49 4z m148 0
c22 -17 22 -24 -5 -46 -22 -18 -24 -18 -41 1 -15 16 -15 22 -5 39 15 23 26 25
51 6z m-283 -151 c15 -18 -2 -45 -30 -45 -10 0 -23 7 -30 15 -15 18 2 45 30
45 10 0 23 -7 30 -15z m-1 -147 c10 -27 -3 -48 -29 -48 -10 0 -22 6 -28 13
-15 18 4 57 28 57 12 0 24 -9 29 -22z m291 -157 c0 -10 -7 -24 -15 -31 -30
-25 -62 29 -33 58 15 15 48 -3 48 -27z m148 -3 c-2 -12 -11 -26 -21 -32 -15
-9 -21 -7 -33 8 -18 25 -18 31 2 50 21 21 57 3 52 -26z m142 2 c0 -28 -27 -45
-45 -30 -20 17 -19 47 2 59 21 11 43 -3 43 -29z m-432 2 c2 -16 -3 -25 -20
-31 -30 -12 -53 8 -43 38 10 31 59 26 63 -7z m575 -126 c3 -8 3 -24 0 -36 -7
-26 -40 -24 -57 3 -9 15 -7 21 8 33 25 18 42 18 49 0z m0 -182 c-18 -28 -21
-29 -45 -7 -24 22 -23 38 5 50 17 8 26 7 39 -4 16 -14 16 -17 1 -39z m-423
-130 c0 -6 -11 -16 -24 -24 -21 -11 -27 -10 -40 3 -20 19 -20 22 1 46 15 18
17 19 39 3 13 -9 24 -22 24 -28z m128 -21 l-22 -23 -23 22 -23 22 22 23 22 23
23 -22 23 -22 -22 -23z m162 22 c0 -3 -8 -14 -17 -25 -17 -18 -19 -18 -40 0
-13 10 -23 21 -23 25 0 4 10 15 23 25 21 18 23 18 40 0 9 -11 17 -22 17 -25z
m-459 25 c25 -14 24 -36 -2 -50 -16 -9 -25 -8 -40 6 -18 16 -18 18 -3 36 20
21 20 21 45 8z"/>
<path d="M10897 5162 c-23 -25 -21 -71 3 -97 l20 -22 -20 -18 c-25 -22 -26
-67 -3 -106 16 -26 16 -29 0 -47 -21 -23 -22 -75 -2 -92 8 -7 15 -20 15 -30 0
-10 -7 -20 -15 -24 -9 -3 -15 -18 -15 -39 0 -19 7 -40 15 -47 8 -7 15 -20 15
-30 0 -10 -7 -23 -15 -30 -8 -7 -15 -28 -15 -47 0 -21 6 -36 15 -39 8 -4 15
-14 15 -24 0 -10 -7 -23 -15 -30 -20 -17 -19 -74 2 -95 15 -16 15 -19 0 -45
-23 -38 -21 -83 3 -105 l20 -18 -20 -22 c-25 -27 -26 -77 -2 -98 24 -22 80
-22 104 0 17 15 19 15 36 0 11 -10 35 -17 60 -17 36 0 44 4 57 29 16 33 9 67
-19 90 -14 12 -15 16 -3 30 36 41 39 60 15 102 -15 26 -19 42 -12 47 6 4 16
17 23 29 9 19 8 30 -9 64 -19 36 -20 43 -7 57 25 29 28 56 8 86 -19 29 -19 30
0 68 l20 39 -20 35 c-21 34 -21 35 -2 70 20 37 15 79 -12 96 -8 5 -5 19 11 47
24 43 21 61 -16 103 -13 16 -13 18 1 24 8 3 20 18 27 34 9 23 9 34 -4 59 -15
27 -21 31 -60 31 -27 0 -48 -6 -56 -15 -7 -8 -18 -15 -25 -15 -7 0 -15 7 -19
15 -8 22 -79 20 -99 -3z m146 -96 c22 -17 22 -24 -5 -46 -23 -18 -23 -18 -39
2 -13 17 -14 26 -6 40 14 21 26 22 50 4z m-1 -143 c24 -21 23 -35 -3 -51 -18
-11 -24 -11 -39 3 -18 16 -18 19 -3 41 18 28 21 29 45 7z m4 -154 c18 -20 18
-21 -1 -35 -38 -28 -71 -8 -53 32 14 30 29 30 54 3z m4 -149 c14 -25 -23 -58
-45 -40 -18 15 -20 41 -4 57 14 14 37 6 49 -17z m-5 -134 c19 -14 19 -15 1
-35 -25 -28 -44 -27 -52 3 -11 44 14 59 51 32z m-2 -140 c22 -17 22 -29 -4
-52 -20 -18 -21 -18 -39 6 -17 23 -17 26 -3 42 19 21 23 21 46 4z m17 -172 c0
-6 -11 -17 -25 -24 -22 -12 -27 -11 -39 5 -12 16 -12 22 1 42 14 22 16 22 39
5 13 -9 24 -22 24 -28z"/>
<path d="M11478 5163 c-27 -32 -28 -51 -4 -85 20 -30 21 -36 9 -55 l-14 -21
-39 21 c-30 17 -44 20 -66 12 -37 -13 -63 -58 -48 -82 6 -10 17 -28 24 -39 12
-19 11 -24 -3 -38 -28 -28 -30 -54 -8 -92 l21 -36 -20 -25 c-24 -31 -25 -43
-3 -81 16 -28 16 -32 -2 -71 -18 -41 -18 -42 3 -71 l22 -29 -20 -33 c-26 -44
-25 -60 6 -92 32 -31 56 -33 95 -5 29 20 31 20 49 4 19 -17 19 -18 1 -44 -30
-42 -31 -71 -1 -101 24 -24 62 -26 96 -3 24 15 27 15 54 0 35 -21 59 -21 89
-1 22 16 25 16 51 0 39 -22 75 -20 100 6 25 28 26 62 0 98 -19 27 -19 28 0 45
18 16 20 16 50 -5 33 -24 67 -22 94 5 19 19 23 19 47 -4 17 -16 18 -20 5 -31
-27 -22 -31 -78 -8 -109 19 -26 19 -27 1 -50 -24 -30 -24 -58 0 -98 l20 -31
-22 -15 c-20 -13 -25 -13 -46 4 -30 24 -52 24 -94 -1 l-34 -20 -18 20 c-22 24
-57 26 -92 3 -24 -16 -27 -16 -55 0 -36 21 -58 21 -84 2 -25 -19 -48 -19 -64
0 -18 21 -64 19 -85 -5 l-18 -20 -34 20 c-45 26 -69 25 -98 -5 -30 -30 -31
-54 -4 -89 15 -19 30 -26 54 -26 19 0 37 4 40 10 3 5 15 15 26 20 16 9 21 7
31 -15 9 -21 8 -28 -7 -45 -26 -29 -22 -70 9 -97 31 -27 54 -29 82 -8 25 19
58 19 74 0 18 -21 50 -19 77 7 l23 22 30 -22 c37 -28 60 -28 94 -1 l28 22 28
-22 c37 -27 58 -27 87 1 20 19 27 20 41 10 45 -32 63 -36 90 -21 40 22 50 62
28 104 -19 34 -19 36 -1 55 l18 20 22 -20 c27 -25 77 -26 98 -2 22 24 23 90 2
98 -8 4 -15 12 -15 19 0 7 7 18 15 25 9 8 15 30 15 57 0 30 -5 45 -15 49 -8 4
-15 12 -15 19 0 7 7 18 15 25 8 7 15 29 15 50 0 21 -7 43 -15 50 -8 7 -15 18
-15 25 0 7 7 15 15 19 20 7 20 70 -1 102 -15 23 -15 26 0 43 21 23 21 87 1 95
-8 3 -15 12 -15 19 0 8 7 20 15 27 20 16 19 79 -1 101 -15 16 -15 20 0 41 21
29 21 97 1 104 -8 4 -15 12 -15 19 0 7 7 18 15 25 8 7 15 29 15 50 0 21 -7 43
-15 50 -8 7 -15 18 -15 25 0 7 7 15 15 19 20 7 20 80 -1 100 -9 9 -32 16 -54
16 -34 0 -42 -4 -56 -31 -13 -26 -13 -36 -4 -60 7 -16 16 -29 21 -29 14 0 10
-22 -8 -42 -15 -17 -17 -17 -35 -1 -12 10 -36 18 -58 18 -22 0 -46 -8 -58 -18
-18 -16 -20 -16 -35 1 -18 20 -22 42 -8 42 5 0 14 13 21 29 9 24 9 34 -4 60
-14 26 -22 31 -54 31 -21 0 -48 -7 -60 -16 -21 -15 -25 -15 -41 0 -23 21 -75
20 -107 0 -23 -15 -26 -15 -43 0 -23 21 -87 21 -95 1 -3 -8 -12 -15 -19 -15
-8 0 -20 7 -27 15 -17 21 -83 19 -102 -2z m156 -105 c7 -12 6 -21 -3 -32 -17
-21 -35 -20 -56 1 -16 16 -16 18 5 35 26 21 39 20 54 -4z m136 4 l22 -17 -21
-19 c-33 -30 -79 5 -51 39 16 19 23 19 50 -3z m143 4 c23 -18 22 -31 -7 -49
-23 -15 -25 -15 -39 7 -14 21 -14 25 1 40 19 19 22 19 45 2z m-430 -150 c15
-22 15 -25 -3 -41 -15 -14 -21 -14 -39 -3 -25 16 -26 26 -4 50 21 24 28 23 46
-6z m437 3 c31 -24 71 -20 102 8 16 14 19 14 37 -8 19 -23 19 -24 0 -48 -24
-30 -24 -58 1 -96 19 -29 19 -29 0 -48 -25 -22 -25 -50 -3 -88 16 -27 16 -31
0 -58 -21 -36 -22 -65 -1 -85 33 -34 -9 -85 -44 -53 -24 22 -62 22 -102 0 -29
-17 -31 -17 -41 0 -13 22 -81 23 -99 2 -7 -8 -18 -15 -25 -15 -7 0 -18 7 -25
15 -17 20 -69 19 -92 -2 -15 -13 -23 -15 -36 -7 -23 15 -28 45 -8 56 20 12 21
71 1 88 -8 7 -15 20 -15 30 0 10 7 23 15 30 8 7 15 28 15 47 0 21 -6 36 -15
39 -8 4 -15 14 -15 24 0 10 7 23 15 30 22 18 19 73 -5 95 -15 13 -17 22 -9 36
10 20 44 26 54 10 12 -20 64 -23 95 -5 28 17 32 17 59 1 37 -22 53 -21 82 3
30 24 24 24 59 -1z m282 4 c22 -19 23 -30 4 -49 -19 -18 -25 -18 -47 2 -17 15
-17 18 -1 40 21 28 21 28 44 7z m-716 -159 c9 -35 -8 -51 -41 -36 -29 13 -31
24 -9 46 23 23 43 19 50 -10z m723 5 c11 -19 10 -24 -6 -40 -17 -17 -19 -17
-41 -1 -21 16 -21 19 -7 40 20 28 36 28 54 1z m-719 -159 c0 -39 -51 -49 -65
-12 -9 24 32 57 51 41 8 -6 14 -19 14 -29z m720 0 c0 -28 -27 -45 -45 -30 -20
17 -19 47 2 59 21 11 43 -3 43 -29z m1 -159 c-13 -24 -31 -27 -49 -9 -17 17
-15 39 6 54 14 11 20 10 36 -5 15 -15 16 -22 7 -40z m-726 30 c14 -46 -34 -69
-59 -28 -9 15 -7 21 8 33 27 19 43 18 51 -5z m722 -137 c13 -13 14 -19 3 -40
-17 -30 -27 -30 -50 -1 -17 20 -17 24 -3 40 20 21 30 21 50 1z m-571 -9 c8
-20 -13 -45 -37 -45 -24 0 -42 33 -27 48 17 17 58 15 64 -3z m142 3 c15 -15
-3 -48 -27 -48 -24 0 -45 25 -37 45 6 18 47 20 64 3z m442 -159 c0 -5 -8 -18
-17 -29 -17 -20 -17 -20 -40 2 l-23 22 22 23 c20 21 23 22 40 6 10 -9 18 -20
18 -24z m-12 -130 c11 -18 11 -24 -3 -39 -16 -17 -19 -18 -41 -4 -22 15 -22
17 -7 40 19 30 34 30 51 3z m-141 -173 c-10 -24 -37 -31 -54 -13 -15 14 -15
18 1 43 l18 26 20 -20 c12 -12 18 -27 15 -36z m-437 24 c15 -27 5 -40 -31 -40
-24 0 -29 4 -29 23 0 13 3 27 7 30 13 14 43 6 53 -13z m148 -11 c2 -20 -2 -28
-20 -32 -29 -8 -49 12 -41 41 9 34 57 27 61 -9z m143 9 c10 -18 8 -24 -7 -35
-36 -26 -61 -10 -50 33 8 30 41 32 57 2z"/>
<path d="M12488 5155 c-24 -32 -23 -54 4 -82 19 -20 20 -27 10 -41 -38 -53
-38 -71 -1 -123 10 -13 8 -20 -9 -37 -28 -28 -28 -55 -1 -92 l22 -28 -22 -28
c-25 -31 -27 -57 -6 -78 8 -8 15 -24 15 -36 0 -12 -7 -28 -15 -36 -21 -22 -19
-54 7 -81 l22 -23 -22 -30 c-28 -37 -28 -64 -1 -91 19 -19 20 -25 9 -43 -7
-12 -18 -29 -24 -38 -10 -17 -2 -40 26 -80 10 -14 9 -21 -10 -41 -27 -29 -28
-55 -2 -85 25 -30 85 -33 104 -6 13 17 15 17 39 1 77 -50 162 13 114 85 l-23
33 22 33 c24 35 23 50 -7 93 -18 26 -18 27 1 44 23 21 25 62 5 89 -19 25 -19
50 0 66 8 7 15 25 15 40 0 15 -7 33 -15 40 -19 16 -19 44 -1 59 24 20 25 49 4
76 -14 18 -18 34 -14 50 7 28 22 31 50 10 11 -8 37 -15 58 -15 32 0 40 5 54
31 13 26 13 36 4 60 -7 16 -16 29 -21 29 -16 0 -9 27 11 45 20 18 21 18 34 -1
10 -13 26 -19 56 -19 30 0 46 6 56 19 13 19 14 19 34 1 27 -25 83 -24 110 0
21 19 22 19 40 -5 18 -23 18 -25 -1 -48 -24 -31 -24 -52 1 -95 l20 -34 -20
-18 c-24 -21 -26 -67 -5 -85 8 -7 15 -20 15 -30 0 -10 -7 -23 -15 -30 -8 -7
-15 -25 -15 -40 0 -15 7 -33 15 -40 19 -16 19 -41 0 -66 -20 -26 -19 -57 4
-86 19 -23 19 -24 0 -48 -24 -33 -24 -71 2 -98 l20 -22 -20 -27 c-25 -31 -27
-61 -5 -91 19 -27 73 -30 111 -5 24 16 26 16 38 0 8 -11 26 -17 52 -17 32 0
44 5 57 25 21 33 20 58 -4 80 -11 10 -20 23 -20 30 0 7 9 20 20 30 26 23 25
55 -1 89 l-20 26 20 26 c27 34 26 57 -1 94 l-22 30 22 23 c25 27 29 75 7 83
-8 4 -15 16 -15 29 0 12 7 28 15 35 21 17 19 64 -4 84 -20 18 -18 48 5 67 20
17 17 52 -7 83 l-20 26 20 26 c28 36 26 68 -5 93 -32 25 -57 26 -95 4 -27 -16
-29 -16 -49 2 l-20 18 20 22 c25 27 26 77 2 98 -24 22 -90 23 -98 2 -4 -8 -12
-15 -19 -15 -7 0 -18 7 -25 15 -8 9 -30 15 -57 15 -30 0 -45 -5 -49 -15 -4 -8
-12 -15 -19 -15 -7 0 -18 7 -25 15 -7 9 -29 15 -51 15 -64 0 -90 -61 -48 -114
l21 -26 -23 -19 c-23 -18 -24 -18 -48 0 -30 24 -58 24 -98 0 l-31 -20 -15 22
c-13 20 -13 25 4 46 24 29 24 73 1 94 -23 21 -85 22 -102 2 -7 -8 -19 -15 -27
-15 -7 0 -16 7 -19 15 -4 10 -20 15 -48 15 -32 -1 -45 -6 -58 -25z m152 -93
l22 -17 -21 -19 c-33 -30 -79 5 -51 39 16 19 23 19 50 -3z m440 1 c20 -17 20
-17 -2 -40 l-22 -23 -23 22 c-21 20 -22 23 -6 40 20 22 28 23 53 1z m145 0
c10 -14 10 -21 -2 -40 -14 -21 -16 -21 -39 -6 -29 18 -30 31 -6 49 23 18 32
17 47 -3z m-443 -140 c24 -21 23 -35 -3 -51 -18 -11 -24 -11 -39 3 -18 16 -18
19 -3 41 18 28 21 29 45 7z m-137 -9 c20 -21 3 -44 -32 -44 -28 0 -40 24 -23
45 16 19 35 19 55 -1z m730 -4 c13 -41 -24 -57 -63 -27 -10 8 -9 14 4 28 22
25 51 24 59 -1z m-737 -132 c19 -19 14 -46 -9 -53 -31 -10 -55 16 -40 44 13
24 31 27 49 9z m733 -9 c15 -28 -9 -54 -40 -44 -23 7 -28 34 -9 53 18 18 36
15 49 -9z m-726 -159 c0 -20 -6 -26 -27 -28 -25 -3 -28 0 -28 28 0 28 3 31 28
28 21 -2 27 -8 27 -28z m727 13 c8 -29 -2 -43 -28 -43 -26 0 -40 20 -30 45 8
21 53 19 58 -2z m-738 -129 c29 -11 12 -64 -21 -64 -21 0 -36 39 -22 56 13 16
20 17 43 8z m735 -8 c14 -17 -1 -56 -22 -56 -18 0 -37 21 -37 41 0 15 11 22
41 28 4 0 12 -5 18 -13z m3 -181 c-14 -30 -22 -31 -50 -4 -25 22 -21 36 12 49
32 12 53 -12 38 -45z m-724 33 c15 -15 -3 -48 -27 -48 -24 0 -45 25 -37 45 6
18 47 20 64 3z m-4 -147 c17 -19 17 -20 -8 -36 -21 -14 -29 -15 -41 -5 -18 15
-19 32 -3 48 17 17 32 15 52 -7z m730 -4 c8 -13 7 -21 -6 -33 -16 -16 -19 -16
-44 1 l-28 18 24 19 c26 21 39 20 54 -5z"/>
</g>
</svg>
