<svg width="1337" height="188" viewBox="0 0 1337 188" fill="none" xmlns="http://www.w3.org/2000/svg">
<path d="M79.0625 29.625C75.0375 29.625 71.875 26.4625 71.875 22.4375C71.875 18.4125 75.0375 15.25 79.0625 15.25C83.0875 15.25 86.25 18.4125 86.25 22.4375C86.25 26.4625 83.0875 29.625 79.0625 29.625ZM35.9375 29.625C31.9125 29.625 28.75 26.4625 28.75 22.4375C28.75 18.4125 31.9125 15.25 35.9375 15.25C39.9625 15.25 43.125 18.4125 43.125 22.4375C43.125 26.4625 39.9625 29.625 35.9375 29.625ZM50.3125 29.625C46.2875 29.625 43.125 26.4625 43.125 22.4375C43.125 18.4125 46.2875 15.25 50.3125 15.25C54.3375 15.25 57.5 18.4125 57.5 22.4375C57.5 26.4625 54.3375 29.625 50.3125 29.625ZM64.6875 29.625C60.6625 29.625 57.5 26.4625 57.5 22.4375C57.5 18.4125 60.6625 15.25 64.6875 15.25C68.7125 15.25 71.875 18.4125 71.875 22.4375C71.875 26.4625 68.7125 29.625 64.6875 29.625ZM21.5625 29.625C17.5375 29.625 14.375 26.4625 14.375 22.4375C14.375 18.4125 17.5375 15.25 21.5625 15.25C25.5875 15.25 28.75 18.4125 28.75 22.4375C28.75 26.4625 25.5875 29.625 21.5625 29.625ZM93.4375 44C89.4125 44 86.25 40.8375 86.25 36.8125C86.25 32.7875 89.4125 29.625 93.4375 29.625C97.4625 29.625 100.625 32.7875 100.625 36.8125C100.625 40.8375 97.4625 44 93.4375 44ZM50.3125 44C46.2875 44 43.125 40.8375 43.125 36.8125C43.125 32.7875 46.2875 29.625 50.3125 29.625C54.3375 29.625 57.5 32.7875 57.5 36.8125C57.5 40.8375 54.3375 44 50.3125 44ZM35.9375 44C31.9125 44 28.75 40.8375 28.75 36.8125C28.75 32.7875 31.9125 29.625 35.9375 29.625C39.9625 29.625 43.125 32.7875 43.125 36.8125C43.125 40.8375 39.9625 44 35.9375 44ZM21.5625 44C17.5375 44 14.375 40.8375 14.375 36.8125C14.375 32.7875 17.5375 29.625 21.5625 29.625C25.5875 29.625 28.75 32.7875 28.75 36.8125C28.75 40.8375 25.5875 44 21.5625 44ZM7.1875 44C3.1625 44 0 40.8375 0 36.8125C0 32.7875 3.1625 29.625 7.1875 29.625C11.2125 29.625 14.375 32.7875 14.375 36.8125C14.375 40.8375 11.2125 44 7.1875 44ZM64.6875 44C60.6625 44 57.5 40.8375 57.5 36.8125C57.5 32.7875 60.6625 29.625 64.6875 29.625C68.7125 29.625 71.875 32.7875 71.875 36.8125C71.875 40.8375 68.7125 44 64.6875 44ZM79.0625 44C75.0375 44 71.875 40.8375 71.875 36.8125C71.875 32.7875 75.0375 29.625 79.0625 29.625C83.0875 29.625 86.25 32.7875 86.25 36.8125C86.25 40.8375 83.0875 44 79.0625 44ZM79.0625 58.375C75.0375 58.375 71.875 55.2125 71.875 51.1875C71.875 47.1625 75.0375 44 79.0625 44C83.0875 44 86.25 47.1625 86.25 51.1875C86.25 55.2125 83.0875 58.375 79.0625 58.375ZM21.5625 58.375C17.5375 58.375 14.375 55.2125 14.375 51.1875C14.375 47.1625 17.5375 44 21.5625 44C25.5875 44 28.75 47.1625 28.75 51.1875C28.75 55.2125 25.5875 58.375 21.5625 58.375ZM93.4375 58.375C89.4125 58.375 86.25 55.2125 86.25 51.1875C86.25 47.1625 89.4125 44 93.4375 44C97.4625 44 100.625 47.1625 100.625 51.1875C100.625 55.2125 97.4625 58.375 93.4375 58.375ZM7.1875 58.375C3.1625 58.375 0 55.2125 0 51.1875C0 47.1625 3.1625 44 7.1875 44C11.2125 44 14.375 47.1625 14.375 51.1875C14.375 55.2125 11.2125 58.375 7.1875 58.375ZM35.9375 72.75C31.9125 72.75 28.75 69.5875 28.75 65.5625C28.75 61.5375 31.9125 58.375 35.9375 58.375C39.9625 58.375 43.125 61.5375 43.125 65.5625C43.125 69.5875 39.9625 72.75 35.9375 72.75ZM21.5625 72.75C17.5375 72.75 14.375 69.5875 14.375 65.5625C14.375 61.5375 17.5375 58.375 21.5625 58.375C25.5875 58.375 28.75 61.5375 28.75 65.5625C28.75 69.5875 25.5875 72.75 21.5625 72.75ZM7.1875 72.75C3.1625 72.75 0 69.5875 0 65.5625C0 61.5375 3.1625 58.375 7.1875 58.375C11.2125 58.375 14.375 61.5375 14.375 65.5625C14.375 69.5875 11.2125 72.75 7.1875 72.75ZM64.6875 87.125C60.6625 87.125 57.5 83.9625 57.5 79.9375C57.5 75.9125 60.6625 72.75 64.6875 72.75C68.7125 72.75 71.875 75.9125 71.875 79.9375C71.875 83.9625 68.7125 87.125 64.6875 87.125ZM21.5625 87.125C17.5375 87.125 14.375 83.9625 14.375 79.9375C14.375 75.9125 17.5375 72.75 21.5625 72.75C25.5875 72.75 28.75 75.9125 28.75 79.9375C28.75 83.9625 25.5875 87.125 21.5625 87.125ZM35.9375 87.125C31.9125 87.125 28.75 83.9625 28.75 79.9375C28.75 75.9125 31.9125 72.75 35.9375 72.75C39.9625 72.75 43.125 75.9125 43.125 79.9375C43.125 83.9625 39.9625 87.125 35.9375 87.125ZM50.3125 87.125C46.2875 87.125 43.125 83.9625 43.125 79.9375C43.125 75.9125 46.2875 72.75 50.3125 72.75C54.3375 72.75 57.5 75.9125 57.5 79.9375C57.5 83.9625 54.3375 87.125 50.3125 87.125ZM79.0625 101.5C75.0375 101.5 71.875 98.3375 71.875 94.3125C71.875 90.2875 75.0375 87.125 79.0625 87.125C83.0875 87.125 86.25 90.2875 86.25 94.3125C86.25 98.3375 83.0875 101.5 79.0625 101.5ZM35.9375 101.5C31.9125 101.5 28.75 98.3375 28.75 94.3125C28.75 90.2875 31.9125 87.125 35.9375 87.125C39.9625 87.125 43.125 90.2875 43.125 94.3125C43.125 98.3375 39.9625 101.5 35.9375 101.5ZM64.6875 101.5C60.6625 101.5 57.5 98.3375 57.5 94.3125C57.5 90.2875 60.6625 87.125 64.6875 87.125C68.7125 87.125 71.875 90.2875 71.875 94.3125C71.875 98.3375 68.7125 101.5 64.6875 101.5ZM50.3125 101.5C46.2875 101.5 43.125 98.3375 43.125 94.3125C43.125 90.2875 46.2875 87.125 50.3125 87.125C54.3375 87.125 57.5 90.2875 57.5 94.3125C57.5 98.3375 54.3375 101.5 50.3125 101.5ZM79.0625 115.875C75.0375 115.875 71.875 112.712 71.875 108.688C71.875 104.663 75.0375 101.5 79.0625 101.5C83.0875 101.5 86.25 104.663 86.25 108.688C86.25 112.712 83.0875 115.875 79.0625 115.875ZM64.6875 115.875C60.6625 115.875 57.5 112.712 57.5 108.688C57.5 104.663 60.6625 101.5 64.6875 101.5C68.7125 101.5 71.875 104.663 71.875 108.688C71.875 112.712 68.7125 115.875 64.6875 115.875ZM93.4375 115.875C89.4125 115.875 86.25 112.712 86.25 108.688C86.25 104.663 89.4125 101.5 93.4375 101.5C97.4625 101.5 100.625 104.663 100.625 108.688C100.625 112.712 97.4625 115.875 93.4375 115.875ZM79.0625 130.25C75.0375 130.25 71.875 127.087 71.875 123.062C71.875 119.038 75.0375 115.875 79.0625 115.875C83.0875 115.875 86.25 119.038 86.25 123.062C86.25 127.087 83.0875 130.25 79.0625 130.25ZM93.4375 130.25C89.4125 130.25 86.25 127.087 86.25 123.062C86.25 119.038 89.4125 115.875 93.4375 115.875C97.4625 115.875 100.625 119.038 100.625 123.062C100.625 127.087 97.4625 130.25 93.4375 130.25ZM7.1875 130.25C3.1625 130.25 0 127.087 0 123.062C0 119.038 3.1625 115.875 7.1875 115.875C11.2125 115.875 14.375 119.038 14.375 123.062C14.375 127.087 11.2125 130.25 7.1875 130.25ZM21.5625 130.25C17.5375 130.25 14.375 127.087 14.375 123.062C14.375 119.038 17.5375 115.875 21.5625 115.875C25.5875 115.875 28.75 119.038 28.75 123.062C28.75 127.087 25.5875 130.25 21.5625 130.25ZM35.9375 144.625C31.9125 144.625 28.75 141.462 28.75 137.438C28.75 133.413 31.9125 130.25 35.9375 130.25C39.9625 130.25 43.125 133.413 43.125 137.438C43.125 141.462 39.9625 144.625 35.9375 144.625ZM93.4375 144.625C89.4125 144.625 86.25 141.462 86.25 137.438C86.25 133.413 89.4125 130.25 93.4375 130.25C97.4625 130.25 100.625 133.413 100.625 137.438C100.625 141.462 97.4625 144.625 93.4375 144.625ZM79.0625 144.625C75.0375 144.625 71.875 141.462 71.875 137.438C71.875 133.413 75.0375 130.25 79.0625 130.25C83.0875 130.25 86.25 133.413 86.25 137.438C86.25 141.462 83.0875 144.625 79.0625 144.625ZM64.6875 144.625C60.6625 144.625 57.5 141.462 57.5 137.438C57.5 133.413 60.6625 130.25 64.6875 130.25C68.7125 130.25 71.875 133.413 71.875 137.438C71.875 141.462 68.7125 144.625 64.6875 144.625ZM21.5625 144.625C17.5375 144.625 14.375 141.462 14.375 137.438C14.375 133.413 17.5375 130.25 21.5625 130.25C25.5875 130.25 28.75 133.413 28.75 137.438C28.75 141.462 25.5875 144.625 21.5625 144.625ZM7.1875 144.625C3.1625 144.625 0 141.462 0 137.438C0 133.413 3.1625 130.25 7.1875 130.25C11.2125 130.25 14.375 133.413 14.375 137.438C14.375 141.462 11.2125 144.625 7.1875 144.625ZM50.3125 144.625C46.2875 144.625 43.125 141.462 43.125 137.438C43.125 133.413 46.2875 130.25 50.3125 130.25C54.3375 130.25 57.5 133.413 57.5 137.438C57.5 141.462 54.3375 144.625 50.3125 144.625ZM35.9375 159C31.9125 159 28.75 155.838 28.75 151.812C28.75 147.788 31.9125 144.625 35.9375 144.625C39.9625 144.625 43.125 147.788 43.125 151.812C43.125 155.838 39.9625 159 35.9375 159ZM64.6875 159C60.6625 159 57.5 155.838 57.5 151.812C57.5 147.788 60.6625 144.625 64.6875 144.625C68.7125 144.625 71.875 147.788 71.875 151.812C71.875 155.838 68.7125 159 64.6875 159ZM21.5625 159C17.5375 159 14.375 155.838 14.375 151.812C14.375 147.788 17.5375 144.625 21.5625 144.625C25.5875 144.625 28.75 147.788 28.75 151.812C28.75 155.838 25.5875 159 21.5625 159ZM50.3125 159C46.2875 159 43.125 155.838 43.125 151.812C43.125 147.788 46.2875 144.625 50.3125 144.625C54.3375 144.625 57.5 147.788 57.5 151.812C57.5 155.838 54.3375 159 50.3125 159ZM79.0625 159C75.0375 159 71.875 155.838 71.875 151.812C71.875 147.788 75.0375 144.625 79.0625 144.625C83.0875 144.625 86.25 147.788 86.25 151.812C86.25 155.838 83.0875 159 79.0625 159ZM222.812 58.375C218.787 58.375 215.625 55.2125 215.625 51.1875C215.625 47.1625 218.787 44 222.812 44C226.837 44 230 47.1625 230 51.1875C230 55.2125 226.837 58.375 222.812 58.375ZM208.438 58.375C204.412 58.375 201.25 55.2125 201.25 51.1875C201.25 47.1625 204.412 44 208.438 44C212.462 44 215.625 47.1625 215.625 51.1875C215.625 55.2125 212.462 58.375 208.438 58.375ZM136.562 58.375C132.538 58.375 129.375 55.2125 129.375 51.1875C129.375 47.1625 132.538 44 136.562 44C140.587 44 143.75 47.1625 143.75 51.1875C143.75 55.2125 140.587 58.375 136.562 58.375ZM122.188 58.375C118.162 58.375 115 55.2125 115 51.1875C115 47.1625 118.162 44 122.188 44C126.212 44 129.375 47.1625 129.375 51.1875C129.375 55.2125 126.212 58.375 122.188 58.375ZM122.188 72.75C118.162 72.75 115 69.5875 115 65.5625C115 61.5375 118.162 58.375 122.188 58.375C126.212 58.375 129.375 61.5375 129.375 65.5625C129.375 69.5875 126.212 72.75 122.188 72.75ZM136.562 72.75C132.538 72.75 129.375 69.5875 129.375 65.5625C129.375 61.5375 132.538 58.375 136.562 58.375C140.587 58.375 143.75 61.5375 143.75 65.5625C143.75 69.5875 140.587 72.75 136.562 72.75ZM222.812 72.75C218.787 72.75 215.625 69.5875 215.625 65.5625C215.625 61.5375 218.787 58.375 222.812 58.375C226.837 58.375 230 61.5375 230 65.5625C230 69.5875 226.837 72.75 222.812 72.75ZM208.438 72.75C204.412 72.75 201.25 69.5875 201.25 65.5625C201.25 61.5375 204.412 58.375 208.438 58.375C212.462 58.375 215.625 61.5375 215.625 65.5625C215.625 69.5875 212.462 72.75 208.438 72.75ZM136.562 87.125C132.538 87.125 129.375 83.9625 129.375 79.9375C129.375 75.9125 132.538 72.75 136.562 72.75C140.587 72.75 143.75 75.9125 143.75 79.9375C143.75 83.9625 140.587 87.125 136.562 87.125ZM208.438 87.125C204.412 87.125 201.25 83.9625 201.25 79.9375C201.25 75.9125 204.412 72.75 208.438 72.75C212.462 72.75 215.625 75.9125 215.625 79.9375C215.625 83.9625 212.462 87.125 208.438 87.125ZM150.938 87.125C146.913 87.125 143.75 83.9625 143.75 79.9375C143.75 75.9125 146.913 72.75 150.938 72.75C154.962 72.75 158.125 75.9125 158.125 79.9375C158.125 83.9625 154.962 87.125 150.938 87.125ZM194.062 87.125C190.037 87.125 186.875 83.9625 186.875 79.9375C186.875 75.9125 190.037 72.75 194.062 72.75C198.087 72.75 201.25 75.9125 201.25 79.9375C201.25 83.9625 198.087 87.125 194.062 87.125ZM208.438 101.5C204.412 101.5 201.25 98.3375 201.25 94.3125C201.25 90.2875 204.412 87.125 208.438 87.125C212.462 87.125 215.625 90.2875 215.625 94.3125C215.625 98.3375 212.462 101.5 208.438 101.5ZM150.938 101.5C146.913 101.5 143.75 98.3375 143.75 94.3125C143.75 90.2875 146.913 87.125 150.938 87.125C154.962 87.125 158.125 90.2875 158.125 94.3125C158.125 98.3375 154.962 101.5 150.938 101.5ZM194.062 101.5C190.037 101.5 186.875 98.3375 186.875 94.3125C186.875 90.2875 190.037 87.125 194.062 87.125C198.087 87.125 201.25 90.2875 201.25 94.3125C201.25 98.3375 198.087 101.5 194.062 101.5ZM136.562 101.5C132.538 101.5 129.375 98.3375 129.375 94.3125C129.375 90.2875 132.538 87.125 136.562 87.125C140.587 87.125 143.75 90.2875 143.75 94.3125C143.75 98.3375 140.587 101.5 136.562 101.5ZM194.062 115.875C190.037 115.875 186.875 112.712 186.875 108.688C186.875 104.663 190.037 101.5 194.062 101.5C198.087 101.5 201.25 104.663 201.25 108.688C201.25 112.712 198.087 115.875 194.062 115.875ZM150.938 115.875C146.913 115.875 143.75 112.712 143.75 108.688C143.75 104.663 146.913 101.5 150.938 101.5C154.962 101.5 158.125 104.663 158.125 108.688C158.125 112.712 154.962 115.875 150.938 115.875ZM165.312 115.875C161.288 115.875 158.125 112.712 158.125 108.688C158.125 104.663 161.288 101.5 165.312 101.5C169.337 101.5 172.5 104.663 172.5 108.688C172.5 112.712 169.337 115.875 165.312 115.875ZM179.688 115.875C175.662 115.875 172.5 112.712 172.5 108.688C172.5 104.663 175.662 101.5 179.688 101.5C183.712 101.5 186.875 104.663 186.875 108.688C186.875 112.712 183.712 115.875 179.688 115.875ZM150.938 130.25C146.913 130.25 143.75 127.087 143.75 123.062C143.75 119.038 146.913 115.875 150.938 115.875C154.962 115.875 158.125 119.038 158.125 123.062C158.125 127.087 154.962 130.25 150.938 130.25ZM165.312 130.25C161.288 130.25 158.125 127.087 158.125 123.062C158.125 119.038 161.288 115.875 165.312 115.875C169.337 115.875 172.5 119.038 172.5 123.062C172.5 127.087 169.337 130.25 165.312 130.25ZM194.062 130.25C190.037 130.25 186.875 127.087 186.875 123.062C186.875 119.038 190.037 115.875 194.062 115.875C198.087 115.875 201.25 119.038 201.25 123.062C201.25 127.087 198.087 130.25 194.062 130.25ZM179.688 130.25C175.662 130.25 172.5 127.087 172.5 123.062C172.5 119.038 175.662 115.875 179.688 115.875C183.712 115.875 186.875 119.038 186.875 123.062C186.875 127.087 183.712 130.25 179.688 130.25ZM165.312 144.625C161.288 144.625 158.125 141.462 158.125 137.438C158.125 133.413 161.288 130.25 165.312 130.25C169.337 130.25 172.5 133.413 172.5 137.438C172.5 141.462 169.337 144.625 165.312 144.625ZM179.688 144.625C175.662 144.625 172.5 141.462 172.5 137.438C172.5 133.413 175.662 130.25 179.688 130.25C183.712 130.25 186.875 133.413 186.875 137.438C186.875 141.462 183.712 144.625 179.688 144.625ZM165.312 159C161.288 159 158.125 155.838 158.125 151.812C158.125 147.788 161.288 144.625 165.312 144.625C169.337 144.625 172.5 147.788 172.5 151.812C172.5 155.838 169.337 159 165.312 159ZM179.688 159C175.662 159 172.5 155.838 172.5 151.812C172.5 147.788 175.662 144.625 179.688 144.625C183.712 144.625 186.875 147.788 186.875 151.812C186.875 155.838 183.712 159 179.688 159ZM150.938 159C146.913 159 143.75 155.838 143.75 151.812C143.75 147.788 146.913 144.625 150.938 144.625C154.962 144.625 158.125 147.788 158.125 151.812C158.125 155.838 154.962 159 150.938 159ZM165.312 173.375C161.288 173.375 158.125 170.212 158.125 166.188C158.125 162.162 161.288 159 165.312 159C169.337 159 172.5 162.162 172.5 166.188C172.5 170.212 169.337 173.375 165.312 173.375ZM150.938 173.375C146.913 173.375 143.75 170.212 143.75 166.188C143.75 162.162 146.913 159 150.938 159C154.962 159 158.125 162.162 158.125 166.188C158.125 170.212 154.962 173.375 150.938 173.375ZM165.312 187.75C161.288 187.75 158.125 184.587 158.125 180.562C158.125 176.538 161.288 173.375 165.312 173.375C169.337 173.375 172.5 176.538 172.5 180.562C172.5 184.587 169.337 187.75 165.312 187.75ZM150.938 187.75C146.913 187.75 143.75 184.587 143.75 180.562C143.75 176.538 146.913 173.375 150.938 173.375C154.962 173.375 158.125 176.538 158.125 180.562C158.125 184.587 154.962 187.75 150.938 187.75ZM136.562 187.75C132.538 187.75 129.375 184.587 129.375 180.562C129.375 176.538 132.538 173.375 136.562 173.375C140.587 173.375 143.75 176.538 143.75 180.562C143.75 184.587 140.587 187.75 136.562 187.75ZM294.688 58.375C290.663 58.375 287.5 55.2125 287.5 51.1875C287.5 47.1625 290.663 44 294.688 44C298.712 44 301.875 47.1625 301.875 51.1875C301.875 55.2125 298.712 58.375 294.688 58.375ZM323.438 58.375C319.412 58.375 316.25 55.2125 316.25 51.1875C316.25 47.1625 319.412 44 323.438 44C327.462 44 330.625 47.1625 330.625 51.1875C330.625 55.2125 327.462 58.375 323.438 58.375ZM309.062 58.375C305.037 58.375 301.875 55.2125 301.875 51.1875C301.875 47.1625 305.037 44 309.062 44C313.087 44 316.25 47.1625 316.25 51.1875C316.25 55.2125 313.087 58.375 309.062 58.375ZM280.312 58.375C276.288 58.375 273.125 55.2125 273.125 51.1875C273.125 47.1625 276.288 44 280.312 44C284.337 44 287.5 47.1625 287.5 51.1875C287.5 55.2125 284.337 58.375 280.312 58.375ZM265.938 58.375C261.913 58.375 258.75 55.2125 258.75 51.1875C258.75 47.1625 261.913 44 265.938 44C269.962 44 273.125 47.1625 273.125 51.1875C273.125 55.2125 269.962 58.375 265.938 58.375ZM309.062 72.75C305.037 72.75 301.875 69.5875 301.875 65.5625C301.875 61.5375 305.037 58.375 309.062 58.375C313.087 58.375 316.25 61.5375 316.25 65.5625C316.25 69.5875 313.087 72.75 309.062 72.75ZM294.688 72.75C290.663 72.75 287.5 69.5875 287.5 65.5625C287.5 61.5375 290.663 58.375 294.688 58.375C298.712 58.375 301.875 61.5375 301.875 65.5625C301.875 69.5875 298.712 72.75 294.688 72.75ZM280.312 72.75C276.288 72.75 273.125 69.5875 273.125 65.5625C273.125 61.5375 276.288 58.375 280.312 58.375C284.337 58.375 287.5 61.5375 287.5 65.5625C287.5 69.5875 284.337 72.75 280.312 72.75ZM323.438 72.75C319.412 72.75 316.25 69.5875 316.25 65.5625C316.25 61.5375 319.412 58.375 323.438 58.375C327.462 58.375 330.625 61.5375 330.625 65.5625C330.625 69.5875 327.462 72.75 323.438 72.75ZM337.812 72.75C333.787 72.75 330.625 69.5875 330.625 65.5625C330.625 61.5375 333.787 58.375 337.812 58.375C341.837 58.375 345 61.5375 345 65.5625C345 69.5875 341.837 72.75 337.812 72.75ZM251.562 72.75C247.537 72.75 244.375 69.5875 244.375 65.5625C244.375 61.5375 247.537 58.375 251.562 58.375C255.587 58.375 258.75 61.5375 258.75 65.5625C258.75 69.5875 255.587 72.75 251.562 72.75ZM265.938 72.75C261.913 72.75 258.75 69.5875 258.75 65.5625C258.75 61.5375 261.913 58.375 265.938 58.375C269.962 58.375 273.125 61.5375 273.125 65.5625C273.125 69.5875 269.962 72.75 265.938 72.75ZM251.562 87.125C247.537 87.125 244.375 83.9625 244.375 79.9375C244.375 75.9125 247.537 72.75 251.562 72.75C255.587 72.75 258.75 75.9125 258.75 79.9375C258.75 83.9625 255.587 87.125 251.562 87.125ZM265.938 87.125C261.913 87.125 258.75 83.9625 258.75 79.9375C258.75 75.9125 261.913 72.75 265.938 72.75C269.962 72.75 273.125 75.9125 273.125 79.9375C273.125 83.9625 269.962 87.125 265.938 87.125ZM323.438 101.5C319.412 101.5 316.25 98.3375 316.25 94.3125C316.25 90.2875 319.412 87.125 323.438 87.125C327.462 87.125 330.625 90.2875 330.625 94.3125C330.625 98.3375 327.462 101.5 323.438 101.5ZM309.062 101.5C305.037 101.5 301.875 98.3375 301.875 94.3125C301.875 90.2875 305.037 87.125 309.062 87.125C313.087 87.125 316.25 90.2875 316.25 94.3125C316.25 98.3375 313.087 101.5 309.062 101.5ZM294.688 101.5C290.663 101.5 287.5 98.3375 287.5 94.3125C287.5 90.2875 290.663 87.125 294.688 87.125C298.712 87.125 301.875 90.2875 301.875 94.3125C301.875 98.3375 298.712 101.5 294.688 101.5ZM280.312 101.5C276.288 101.5 273.125 98.3375 273.125 94.3125C273.125 90.2875 276.288 87.125 280.312 87.125C284.337 87.125 287.5 90.2875 287.5 94.3125C287.5 98.3375 284.337 101.5 280.312 101.5ZM265.938 101.5C261.913 101.5 258.75 98.3375 258.75 94.3125C258.75 90.2875 261.913 87.125 265.938 87.125C269.962 87.125 273.125 90.2875 273.125 94.3125C273.125 98.3375 269.962 101.5 265.938 101.5ZM251.562 101.5C247.537 101.5 244.375 98.3375 244.375 94.3125C244.375 90.2875 247.537 87.125 251.562 87.125C255.587 87.125 258.75 90.2875 258.75 94.3125C258.75 98.3375 255.587 101.5 251.562 101.5ZM337.812 115.875C333.787 115.875 330.625 112.712 330.625 108.688C330.625 104.663 333.787 101.5 337.812 101.5C341.837 101.5 345 104.663 345 108.688C345 112.712 341.837 115.875 337.812 115.875ZM309.062 115.875C305.037 115.875 301.875 112.712 301.875 108.688C301.875 104.663 305.037 101.5 309.062 101.5C313.087 101.5 316.25 104.663 316.25 108.688C316.25 112.712 313.087 115.875 309.062 115.875ZM323.438 115.875C319.412 115.875 316.25 112.712 316.25 108.688C316.25 104.663 319.412 101.5 323.438 101.5C327.462 101.5 330.625 104.663 330.625 108.688C330.625 112.712 327.462 115.875 323.438 115.875ZM280.312 115.875C276.288 115.875 273.125 112.712 273.125 108.688C273.125 104.663 276.288 101.5 280.312 101.5C284.337 101.5 287.5 104.663 287.5 108.688C287.5 112.712 284.337 115.875 280.312 115.875ZM294.688 115.875C290.663 115.875 287.5 112.712 287.5 108.688C287.5 104.663 290.663 101.5 294.688 101.5C298.712 101.5 301.875 104.663 301.875 108.688C301.875 112.712 298.712 115.875 294.688 115.875ZM265.938 115.875C261.913 115.875 258.75 112.712 258.75 108.688C258.75 104.663 261.913 101.5 265.938 101.5C269.962 101.5 273.125 104.663 273.125 108.688C273.125 112.712 269.962 115.875 265.938 115.875ZM337.812 130.25C333.787 130.25 330.625 127.087 330.625 123.062C330.625 119.038 333.787 115.875 337.812 115.875C341.837 115.875 345 119.038 345 123.062C345 127.087 341.837 130.25 337.812 130.25ZM323.438 130.25C319.412 130.25 316.25 127.087 316.25 123.062C316.25 119.038 319.412 115.875 323.438 115.875C327.462 115.875 330.625 119.038 330.625 123.062C330.625 127.087 327.462 130.25 323.438 130.25ZM337.812 144.625C333.787 144.625 330.625 141.462 330.625 137.438C330.625 133.413 333.787 130.25 337.812 130.25C341.837 130.25 345 133.413 345 137.438C345 141.462 341.837 144.625 337.812 144.625ZM323.438 144.625C319.412 144.625 316.25 141.462 316.25 137.438C316.25 133.413 319.412 130.25 323.438 130.25C327.462 130.25 330.625 133.413 330.625 137.438C330.625 141.462 327.462 144.625 323.438 144.625ZM280.312 144.625C276.288 144.625 273.125 141.462 273.125 137.438C273.125 133.413 276.288 130.25 280.312 130.25C284.337 130.25 287.5 133.413 287.5 137.438C287.5 141.462 284.337 144.625 280.312 144.625ZM294.688 144.625C290.663 144.625 287.5 141.462 287.5 137.438C287.5 133.413 290.663 130.25 294.688 130.25C298.712 130.25 301.875 133.413 301.875 137.438C301.875 141.462 298.712 144.625 294.688 144.625ZM309.062 144.625C305.037 144.625 301.875 141.462 301.875 137.438C301.875 133.413 305.037 130.25 309.062 130.25C313.087 130.25 316.25 133.413 316.25 137.438C316.25 141.462 313.087 144.625 309.062 144.625ZM265.938 144.625C261.913 144.625 258.75 141.462 258.75 137.438C258.75 133.413 261.913 130.25 265.938 130.25C269.962 130.25 273.125 133.413 273.125 137.438C273.125 141.462 269.962 144.625 265.938 144.625ZM251.562 144.625C247.537 144.625 244.375 141.462 244.375 137.438C244.375 133.413 247.537 130.25 251.562 130.25C255.587 130.25 258.75 133.413 258.75 137.438C258.75 141.462 255.587 144.625 251.562 144.625ZM294.688 159C290.663 159 287.5 155.838 287.5 151.812C287.5 147.788 290.663 144.625 294.688 144.625C298.712 144.625 301.875 147.788 301.875 151.812C301.875 155.838 298.712 159 294.688 159ZM323.438 159C319.412 159 316.25 155.838 316.25 151.812C316.25 147.788 319.412 144.625 323.438 144.625C327.462 144.625 330.625 147.788 330.625 151.812C330.625 155.838 327.462 159 323.438 159ZM309.062 159C305.037 159 301.875 155.838 301.875 151.812C301.875 147.788 305.037 144.625 309.062 144.625C313.087 144.625 316.25 147.788 316.25 151.812C316.25 155.838 313.087 159 309.062 159ZM280.312 159C276.288 159 273.125 155.838 273.125 151.812C273.125 147.788 276.288 144.625 280.312 144.625C284.337 144.625 287.5 147.788 287.5 151.812C287.5 155.838 284.337 159 280.312 159ZM265.938 159C261.913 159 258.75 155.838 258.75 151.812C258.75 147.788 261.913 144.625 265.938 144.625C269.962 144.625 273.125 147.788 273.125 151.812C273.125 155.838 269.962 159 265.938 159ZM395.312 29.625C391.288 29.625 388.125 26.4625 388.125 22.4375C388.125 18.4125 391.288 15.25 395.312 15.25C399.337 15.25 402.5 18.4125 402.5 22.4375C402.5 26.4625 399.337 29.625 395.312 29.625ZM380.938 44C376.913 44 373.75 40.8375 373.75 36.8125C373.75 32.7875 376.913 29.625 380.938 29.625C384.962 29.625 388.125 32.7875 388.125 36.8125C388.125 40.8375 384.962 44 380.938 44ZM395.312 44C391.288 44 388.125 40.8375 388.125 36.8125C388.125 32.7875 391.288 29.625 395.312 29.625C399.337 29.625 402.5 32.7875 402.5 36.8125C402.5 40.8375 399.337 44 395.312 44ZM366.562 58.375C362.537 58.375 359.375 55.2125 359.375 51.1875C359.375 47.1625 362.537 44 366.562 44C370.587 44 373.75 47.1625 373.75 51.1875C373.75 55.2125 370.587 58.375 366.562 58.375ZM395.312 58.375C391.288 58.375 388.125 55.2125 388.125 51.1875C388.125 47.1625 391.288 44 395.312 44C399.337 44 402.5 47.1625 402.5 51.1875C402.5 55.2125 399.337 58.375 395.312 58.375ZM438.438 58.375C434.412 58.375 431.25 55.2125 431.25 51.1875C431.25 47.1625 434.412 44 438.438 44C442.462 44 445.625 47.1625 445.625 51.1875C445.625 55.2125 442.462 58.375 438.438 58.375ZM424.062 58.375C420.037 58.375 416.875 55.2125 416.875 51.1875C416.875 47.1625 420.037 44 424.062 44C428.087 44 431.25 47.1625 431.25 51.1875C431.25 55.2125 428.087 58.375 424.062 58.375ZM409.688 58.375C405.663 58.375 402.5 55.2125 402.5 51.1875C402.5 47.1625 405.663 44 409.688 44C413.712 44 416.875 47.1625 416.875 51.1875C416.875 55.2125 413.712 58.375 409.688 58.375ZM380.938 58.375C376.913 58.375 373.75 55.2125 373.75 51.1875C373.75 47.1625 376.913 44 380.938 44C384.962 44 388.125 47.1625 388.125 51.1875C388.125 55.2125 384.962 58.375 380.938 58.375ZM352.188 72.75C348.163 72.75 345 69.5875 345 65.5625C345 61.5375 348.163 58.375 352.188 58.375C356.213 58.375 359.375 61.5375 359.375 65.5625C359.375 69.5875 356.213 72.75 352.188 72.75ZM395.312 72.75C391.288 72.75 388.125 69.5875 388.125 65.5625C388.125 61.5375 391.288 58.375 395.312 58.375C399.337 58.375 402.5 61.5375 402.5 65.5625C402.5 69.5875 399.337 72.75 395.312 72.75ZM424.062 72.75C420.037 72.75 416.875 69.5875 416.875 65.5625C416.875 61.5375 420.037 58.375 424.062 58.375C428.087 58.375 431.25 61.5375 431.25 65.5625C431.25 69.5875 428.087 72.75 424.062 72.75ZM409.688 72.75C405.663 72.75 402.5 69.5875 402.5 65.5625C402.5 61.5375 405.663 58.375 409.688 58.375C413.712 58.375 416.875 61.5375 416.875 65.5625C416.875 69.5875 413.712 72.75 409.688 72.75ZM366.562 72.75C362.537 72.75 359.375 69.5875 359.375 65.5625C359.375 61.5375 362.537 58.375 366.562 58.375C370.587 58.375 373.75 61.5375 373.75 65.5625C373.75 69.5875 370.587 72.75 366.562 72.75ZM380.938 72.75C376.913 72.75 373.75 69.5875 373.75 65.5625C373.75 61.5375 376.913 58.375 380.938 58.375C384.962 58.375 388.125 61.5375 388.125 65.5625C388.125 69.5875 384.962 72.75 380.938 72.75ZM395.312 87.125C391.288 87.125 388.125 83.9625 388.125 79.9375C388.125 75.9125 391.288 72.75 395.312 72.75C399.337 72.75 402.5 75.9125 402.5 79.9375C402.5 83.9625 399.337 87.125 395.312 87.125ZM380.938 87.125C376.913 87.125 373.75 83.9625 373.75 79.9375C373.75 75.9125 376.913 72.75 380.938 72.75C384.962 72.75 388.125 75.9125 388.125 79.9375C388.125 83.9625 384.962 87.125 380.938 87.125ZM380.938 101.5C376.913 101.5 373.75 98.3375 373.75 94.3125C373.75 90.2875 376.913 87.125 380.938 87.125C384.962 87.125 388.125 90.2875 388.125 94.3125C388.125 98.3375 384.962 101.5 380.938 101.5ZM395.312 101.5C391.288 101.5 388.125 98.3375 388.125 94.3125C388.125 90.2875 391.288 87.125 395.312 87.125C399.337 87.125 402.5 90.2875 402.5 94.3125C402.5 98.3375 399.337 101.5 395.312 101.5ZM380.938 115.875C376.913 115.875 373.75 112.712 373.75 108.688C373.75 104.663 376.913 101.5 380.938 101.5C384.962 101.5 388.125 104.663 388.125 108.688C388.125 112.712 384.962 115.875 380.938 115.875ZM395.312 115.875C391.288 115.875 388.125 112.712 388.125 108.688C388.125 104.663 391.288 101.5 395.312 101.5C399.337 101.5 402.5 104.663 402.5 108.688C402.5 112.712 399.337 115.875 395.312 115.875ZM380.938 130.25C376.913 130.25 373.75 127.087 373.75 123.062C373.75 119.038 376.913 115.875 380.938 115.875C384.962 115.875 388.125 119.038 388.125 123.062C388.125 127.087 384.962 130.25 380.938 130.25ZM395.312 130.25C391.288 130.25 388.125 127.087 388.125 123.062C388.125 119.038 391.288 115.875 395.312 115.875C399.337 115.875 402.5 119.038 402.5 123.062C402.5 127.087 399.337 130.25 395.312 130.25ZM409.688 144.625C405.663 144.625 402.5 141.462 402.5 137.438C402.5 133.413 405.663 130.25 409.688 130.25C413.712 130.25 416.875 133.413 416.875 137.438C416.875 141.462 413.712 144.625 409.688 144.625ZM424.062 144.625C420.037 144.625 416.875 141.462 416.875 137.438C416.875 133.413 420.037 130.25 424.062 130.25C428.087 130.25 431.25 133.413 431.25 137.438C431.25 141.462 428.087 144.625 424.062 144.625ZM380.938 144.625C376.913 144.625 373.75 141.462 373.75 137.438C373.75 133.413 376.913 130.25 380.938 130.25C384.962 130.25 388.125 133.413 388.125 137.438C388.125 141.462 384.962 144.625 380.938 144.625ZM395.312 144.625C391.288 144.625 388.125 141.462 388.125 137.438C388.125 133.413 391.288 130.25 395.312 130.25C399.337 130.25 402.5 133.413 402.5 137.438C402.5 141.462 399.337 144.625 395.312 144.625ZM438.438 144.625C434.412 144.625 431.25 141.462 431.25 137.438C431.25 133.413 434.412 130.25 438.438 130.25C442.462 130.25 445.625 133.413 445.625 137.438C445.625 141.462 442.462 144.625 438.438 144.625ZM409.688 159C405.663 159 402.5 155.838 402.5 151.812C402.5 147.788 405.663 144.625 409.688 144.625C413.712 144.625 416.875 147.788 416.875 151.812C416.875 155.838 413.712 159 409.688 159ZM395.312 159C391.288 159 388.125 155.838 388.125 151.812C388.125 147.788 391.288 144.625 395.312 144.625C399.337 144.625 402.5 147.788 402.5 151.812C402.5 155.838 399.337 159 395.312 159ZM424.062 159C420.037 159 416.875 155.838 416.875 151.812C416.875 147.788 420.037 144.625 424.062 144.625C428.087 144.625 431.25 147.788 431.25 151.812C431.25 155.838 428.087 159 424.062 159ZM510.312 58.375C506.287 58.375 503.125 55.2125 503.125 51.1875C503.125 47.1625 506.287 44 510.312 44C514.337 44 517.5 47.1625 517.5 51.1875C517.5 55.2125 514.337 58.375 510.312 58.375ZM495.938 58.375C491.913 58.375 488.75 55.2125 488.75 51.1875C488.75 47.1625 491.913 44 495.938 44C499.962 44 503.125 47.1625 503.125 51.1875C503.125 55.2125 499.962 58.375 495.938 58.375ZM481.562 58.375C477.538 58.375 474.375 55.2125 474.375 51.1875C474.375 47.1625 477.538 44 481.562 44C485.587 44 488.75 47.1625 488.75 51.1875C488.75 55.2125 485.587 58.375 481.562 58.375ZM510.312 72.75C506.287 72.75 503.125 69.5875 503.125 65.5625C503.125 61.5375 506.287 58.375 510.312 58.375C514.337 58.375 517.5 61.5375 517.5 65.5625C517.5 69.5875 514.337 72.75 510.312 72.75ZM467.188 72.75C463.163 72.75 460 69.5875 460 65.5625C460 61.5375 463.163 58.375 467.188 58.375C471.212 58.375 474.375 61.5375 474.375 65.5625C474.375 69.5875 471.212 72.75 467.188 72.75ZM524.688 72.75C520.662 72.75 517.5 69.5875 517.5 65.5625C517.5 61.5375 520.662 58.375 524.688 58.375C528.712 58.375 531.875 61.5375 531.875 65.5625C531.875 69.5875 528.712 72.75 524.688 72.75ZM495.938 72.75C491.913 72.75 488.75 69.5875 488.75 65.5625C488.75 61.5375 491.913 58.375 495.938 58.375C499.962 58.375 503.125 61.5375 503.125 65.5625C503.125 69.5875 499.962 72.75 495.938 72.75ZM481.562 72.75C477.538 72.75 474.375 69.5875 474.375 65.5625C474.375 61.5375 477.538 58.375 481.562 58.375C485.587 58.375 488.75 61.5375 488.75 65.5625C488.75 69.5875 485.587 72.75 481.562 72.75ZM452.812 87.125C448.787 87.125 445.625 83.9625 445.625 79.9375C445.625 75.9125 448.787 72.75 452.812 72.75C456.837 72.75 460 75.9125 460 79.9375C460 83.9625 456.837 87.125 452.812 87.125ZM524.688 87.125C520.662 87.125 517.5 83.9625 517.5 79.9375C517.5 75.9125 520.662 72.75 524.688 72.75C528.712 72.75 531.875 75.9125 531.875 79.9375C531.875 83.9625 528.712 87.125 524.688 87.125ZM467.188 87.125C463.163 87.125 460 83.9625 460 79.9375C460 75.9125 463.163 72.75 467.188 72.75C471.212 72.75 474.375 75.9125 474.375 79.9375C474.375 83.9625 471.212 87.125 467.188 87.125ZM539.062 87.125C535.037 87.125 531.875 83.9625 531.875 79.9375C531.875 75.9125 535.037 72.75 539.062 72.75C543.087 72.75 546.25 75.9125 546.25 79.9375C546.25 83.9625 543.087 87.125 539.062 87.125ZM467.188 101.5C463.163 101.5 460 98.3375 460 94.3125C460 90.2875 463.163 87.125 467.188 87.125C471.212 87.125 474.375 90.2875 474.375 94.3125C474.375 98.3375 471.212 101.5 467.188 101.5ZM524.688 101.5C520.662 101.5 517.5 98.3375 517.5 94.3125C517.5 90.2875 520.662 87.125 524.688 87.125C528.712 87.125 531.875 90.2875 531.875 94.3125C531.875 98.3375 528.712 101.5 524.688 101.5ZM539.062 101.5C535.037 101.5 531.875 98.3375 531.875 94.3125C531.875 90.2875 535.037 87.125 539.062 87.125C543.087 87.125 546.25 90.2875 546.25 94.3125C546.25 98.3375 543.087 101.5 539.062 101.5ZM452.812 101.5C448.787 101.5 445.625 98.3375 445.625 94.3125C445.625 90.2875 448.787 87.125 452.812 87.125C456.837 87.125 460 90.2875 460 94.3125C460 98.3375 456.837 101.5 452.812 101.5ZM481.562 101.5C477.538 101.5 474.375 98.3375 474.375 94.3125C474.375 90.2875 477.538 87.125 481.562 87.125C485.587 87.125 488.75 90.2875 488.75 94.3125C488.75 98.3375 485.587 101.5 481.562 101.5ZM495.938 101.5C491.913 101.5 488.75 98.3375 488.75 94.3125C488.75 90.2875 491.913 87.125 495.938 87.125C499.962 87.125 503.125 90.2875 503.125 94.3125C503.125 98.3375 499.962 101.5 495.938 101.5ZM510.312 101.5C506.287 101.5 503.125 98.3375 503.125 94.3125C503.125 90.2875 506.287 87.125 510.312 87.125C514.337 87.125 517.5 90.2875 517.5 94.3125C517.5 98.3375 514.337 101.5 510.312 101.5ZM467.188 115.875C463.163 115.875 460 112.712 460 108.688C460 104.663 463.163 101.5 467.188 101.5C471.212 101.5 474.375 104.663 474.375 108.688C474.375 112.712 471.212 115.875 467.188 115.875ZM481.562 115.875C477.538 115.875 474.375 112.712 474.375 108.688C474.375 104.663 477.538 101.5 481.562 101.5C485.587 101.5 488.75 104.663 488.75 108.688C488.75 112.712 485.587 115.875 481.562 115.875ZM495.938 115.875C491.913 115.875 488.75 112.712 488.75 108.688C488.75 104.663 491.913 101.5 495.938 101.5C499.962 101.5 503.125 104.663 503.125 108.688C503.125 112.712 499.962 115.875 495.938 115.875ZM510.312 115.875C506.287 115.875 503.125 112.712 503.125 108.688C503.125 104.663 506.287 101.5 510.312 101.5C514.337 101.5 517.5 104.663 517.5 108.688C517.5 112.712 514.337 115.875 510.312 115.875ZM524.688 115.875C520.662 115.875 517.5 112.712 517.5 108.688C517.5 104.663 520.662 101.5 524.688 101.5C528.712 101.5 531.875 104.663 531.875 108.688C531.875 112.712 528.712 115.875 524.688 115.875ZM539.062 115.875C535.037 115.875 531.875 112.712 531.875 108.688C531.875 104.663 535.037 101.5 539.062 101.5C543.087 101.5 546.25 104.663 546.25 108.688C546.25 112.712 543.087 115.875 539.062 115.875ZM452.812 115.875C448.787 115.875 445.625 112.712 445.625 108.688C445.625 104.663 448.787 101.5 452.812 101.5C456.837 101.5 460 104.663 460 108.688C460 112.712 456.837 115.875 452.812 115.875ZM467.188 130.25C463.163 130.25 460 127.087 460 123.062C460 119.038 463.163 115.875 467.188 115.875C471.212 115.875 474.375 119.038 474.375 123.062C474.375 127.087 471.212 130.25 467.188 130.25ZM452.812 130.25C448.787 130.25 445.625 127.087 445.625 123.062C445.625 119.038 448.787 115.875 452.812 115.875C456.837 115.875 460 119.038 460 123.062C460 127.087 456.837 130.25 452.812 130.25ZM467.188 144.625C463.163 144.625 460 141.462 460 137.438C460 133.413 463.163 130.25 467.188 130.25C471.212 130.25 474.375 133.413 474.375 137.438C474.375 141.462 471.212 144.625 467.188 144.625ZM481.562 144.625C477.538 144.625 474.375 141.462 474.375 137.438C474.375 133.413 477.538 130.25 481.562 130.25C485.587 130.25 488.75 133.413 488.75 137.438C488.75 141.462 485.587 144.625 481.562 144.625ZM495.938 144.625C491.913 144.625 488.75 141.462 488.75 137.438C488.75 133.413 491.913 130.25 495.938 130.25C499.962 130.25 503.125 133.413 503.125 137.438C503.125 141.462 499.962 144.625 495.938 144.625ZM510.312 144.625C506.287 144.625 503.125 141.462 503.125 137.438C503.125 133.413 506.287 130.25 510.312 130.25C514.337 130.25 517.5 133.413 517.5 137.438C517.5 141.462 514.337 144.625 510.312 144.625ZM524.688 144.625C520.662 144.625 517.5 141.462 517.5 137.438C517.5 133.413 520.662 130.25 524.688 130.25C528.712 130.25 531.875 133.413 531.875 137.438C531.875 141.462 528.712 144.625 524.688 144.625ZM539.062 144.625C535.037 144.625 531.875 141.462 531.875 137.438C531.875 133.413 535.037 130.25 539.062 130.25C543.087 130.25 546.25 133.413 546.25 137.438C546.25 141.462 543.087 144.625 539.062 144.625ZM481.562 159C477.538 159 474.375 155.838 474.375 151.812C474.375 147.788 477.538 144.625 481.562 144.625C485.587 144.625 488.75 147.788 488.75 151.812C488.75 155.838 485.587 159 481.562 159ZM495.938 159C491.913 159 488.75 155.838 488.75 151.812C488.75 147.788 491.913 144.625 495.938 144.625C499.962 144.625 503.125 147.788 503.125 151.812C503.125 155.838 499.962 159 495.938 159ZM510.312 159C506.287 159 503.125 155.838 503.125 151.812C503.125 147.788 506.287 144.625 510.312 144.625C514.337 144.625 517.5 147.788 517.5 151.812C517.5 155.838 514.337 159 510.312 159ZM524.688 159C520.662 159 517.5 155.838 517.5 151.812C517.5 147.788 520.662 144.625 524.688 144.625C528.712 144.625 531.875 147.788 531.875 151.812C531.875 155.838 528.712 159 524.688 159ZM682.812 58.375C678.788 58.375 675.625 55.2125 675.625 51.1875C675.625 47.1625 678.788 44 682.812 44C686.837 44 690 47.1625 690 51.1875C690 55.2125 686.837 58.375 682.812 58.375ZM668.438 58.375C664.412 58.375 661.25 55.2125 661.25 51.1875C661.25 47.1625 664.412 44 668.438 44C672.462 44 675.625 47.1625 675.625 51.1875C675.625 55.2125 672.462 58.375 668.438 58.375ZM639.688 58.375C635.662 58.375 632.5 55.2125 632.5 51.1875C632.5 47.1625 635.662 44 639.688 44C643.712 44 646.875 47.1625 646.875 51.1875C646.875 55.2125 643.712 58.375 639.688 58.375ZM625.312 58.375C621.287 58.375 618.125 55.2125 618.125 51.1875C618.125 47.1625 621.287 44 625.312 44C629.337 44 632.5 47.1625 632.5 51.1875C632.5 55.2125 629.337 58.375 625.312 58.375ZM610.938 58.375C606.913 58.375 603.75 55.2125 603.75 51.1875C603.75 47.1625 606.913 44 610.938 44C614.962 44 618.125 47.1625 618.125 51.1875C618.125 55.2125 614.962 58.375 610.938 58.375ZM582.188 58.375C578.163 58.375 575 55.2125 575 51.1875C575 47.1625 578.163 44 582.188 44C586.212 44 589.375 47.1625 589.375 51.1875C589.375 55.2125 586.212 58.375 582.188 58.375ZM567.812 58.375C563.787 58.375 560.625 55.2125 560.625 51.1875C560.625 47.1625 563.787 44 567.812 44C571.837 44 575 47.1625 575 51.1875C575 55.2125 571.837 58.375 567.812 58.375ZM625.312 72.75C621.287 72.75 618.125 69.5875 618.125 65.5625C618.125 61.5375 621.287 58.375 625.312 58.375C629.337 58.375 632.5 61.5375 632.5 65.5625C632.5 69.5875 629.337 72.75 625.312 72.75ZM697.188 72.75C693.163 72.75 690 69.5875 690 65.5625C690 61.5375 693.163 58.375 697.188 58.375C701.212 58.375 704.375 61.5375 704.375 65.5625C704.375 69.5875 701.212 72.75 697.188 72.75ZM567.812 72.75C563.787 72.75 560.625 69.5875 560.625 65.5625C560.625 61.5375 563.787 58.375 567.812 58.375C571.837 58.375 575 61.5375 575 65.5625C575 69.5875 571.837 72.75 567.812 72.75ZM654.062 72.75C650.037 72.75 646.875 69.5875 646.875 65.5625C646.875 61.5375 650.037 58.375 654.062 58.375C658.087 58.375 661.25 61.5375 661.25 65.5625C661.25 69.5875 658.087 72.75 654.062 72.75ZM582.188 72.75C578.163 72.75 575 69.5875 575 65.5625C575 61.5375 578.163 58.375 582.188 58.375C586.212 58.375 589.375 61.5375 589.375 65.5625C589.375 69.5875 586.212 72.75 582.188 72.75ZM596.562 72.75C592.538 72.75 589.375 69.5875 589.375 65.5625C589.375 61.5375 592.538 58.375 596.562 58.375C600.587 58.375 603.75 61.5375 603.75 65.5625C603.75 69.5875 600.587 72.75 596.562 72.75ZM639.688 72.75C635.662 72.75 632.5 69.5875 632.5 65.5625C632.5 61.5375 635.662 58.375 639.688 58.375C643.712 58.375 646.875 61.5375 646.875 65.5625C646.875 69.5875 643.712 72.75 639.688 72.75ZM682.812 72.75C678.788 72.75 675.625 69.5875 675.625 65.5625C675.625 61.5375 678.788 58.375 682.812 58.375C686.837 58.375 690 61.5375 690 65.5625C690 69.5875 686.837 72.75 682.812 72.75ZM668.438 72.75C664.412 72.75 661.25 69.5875 661.25 65.5625C661.25 61.5375 664.412 58.375 668.438 58.375C672.462 58.375 675.625 61.5375 675.625 65.5625C675.625 69.5875 672.462 72.75 668.438 72.75ZM610.938 72.75C606.913 72.75 603.75 69.5875 603.75 65.5625C603.75 61.5375 606.913 58.375 610.938 58.375C614.962 58.375 618.125 61.5375 618.125 65.5625C618.125 69.5875 614.962 72.75 610.938 72.75ZM567.812 87.125C563.787 87.125 560.625 83.9625 560.625 79.9375C560.625 75.9125 563.787 72.75 567.812 72.75C571.837 72.75 575 75.9125 575 79.9375C575 83.9625 571.837 87.125 567.812 87.125ZM582.188 87.125C578.163 87.125 575 83.9625 575 79.9375C575 75.9125 578.163 72.75 582.188 72.75C586.212 72.75 589.375 75.9125 589.375 79.9375C589.375 83.9625 586.212 87.125 582.188 87.125ZM697.188 87.125C693.163 87.125 690 83.9625 690 79.9375C690 75.9125 693.163 72.75 697.188 72.75C701.212 72.75 704.375 75.9125 704.375 79.9375C704.375 83.9625 701.212 87.125 697.188 87.125ZM682.812 87.125C678.788 87.125 675.625 83.9625 675.625 79.9375C675.625 75.9125 678.788 72.75 682.812 72.75C686.837 72.75 690 75.9125 690 79.9375C690 83.9625 686.837 87.125 682.812 87.125ZM625.312 87.125C621.287 87.125 618.125 83.9625 618.125 79.9375C618.125 75.9125 621.287 72.75 625.312 72.75C629.337 72.75 632.5 75.9125 632.5 79.9375C632.5 83.9625 629.337 87.125 625.312 87.125ZM639.688 87.125C635.662 87.125 632.5 83.9625 632.5 79.9375C632.5 75.9125 635.662 72.75 639.688 72.75C643.712 72.75 646.875 75.9125 646.875 79.9375C646.875 83.9625 643.712 87.125 639.688 87.125ZM682.812 101.5C678.788 101.5 675.625 98.3375 675.625 94.3125C675.625 90.2875 678.788 87.125 682.812 87.125C686.837 87.125 690 90.2875 690 94.3125C690 98.3375 686.837 101.5 682.812 101.5ZM639.688 101.5C635.662 101.5 632.5 98.3375 632.5 94.3125C632.5 90.2875 635.662 87.125 639.688 87.125C643.712 87.125 646.875 90.2875 646.875 94.3125C646.875 98.3375 643.712 101.5 639.688 101.5ZM625.312 101.5C621.287 101.5 618.125 98.3375 618.125 94.3125C618.125 90.2875 621.287 87.125 625.312 87.125C629.337 87.125 632.5 90.2875 632.5 94.3125C632.5 98.3375 629.337 101.5 625.312 101.5ZM697.188 101.5C693.163 101.5 690 98.3375 690 94.3125C690 90.2875 693.163 87.125 697.188 87.125C701.212 87.125 704.375 90.2875 704.375 94.3125C704.375 98.3375 701.212 101.5 697.188 101.5ZM567.812 101.5C563.787 101.5 560.625 98.3375 560.625 94.3125C560.625 90.2875 563.787 87.125 567.812 87.125C571.837 87.125 575 90.2875 575 94.3125C575 98.3375 571.837 101.5 567.812 101.5ZM582.188 101.5C578.163 101.5 575 98.3375 575 94.3125C575 90.2875 578.163 87.125 582.188 87.125C586.212 87.125 589.375 90.2875 589.375 94.3125C589.375 98.3375 586.212 101.5 582.188 101.5ZM639.688 115.875C635.662 115.875 632.5 112.712 632.5 108.688C632.5 104.663 635.662 101.5 639.688 101.5C643.712 101.5 646.875 104.663 646.875 108.688C646.875 112.712 643.712 115.875 639.688 115.875ZM682.812 115.875C678.788 115.875 675.625 112.712 675.625 108.688C675.625 104.663 678.788 101.5 682.812 101.5C686.837 101.5 690 104.663 690 108.688C690 112.712 686.837 115.875 682.812 115.875ZM625.312 115.875C621.287 115.875 618.125 112.712 618.125 108.688C618.125 104.663 621.287 101.5 625.312 101.5C629.337 101.5 632.5 104.663 632.5 108.688C632.5 112.712 629.337 115.875 625.312 115.875ZM697.188 115.875C693.163 115.875 690 112.712 690 108.688C690 104.663 693.163 101.5 697.188 101.5C701.212 101.5 704.375 104.663 704.375 108.688C704.375 112.712 701.212 115.875 697.188 115.875ZM567.812 115.875C563.787 115.875 560.625 112.712 560.625 108.688C560.625 104.663 563.787 101.5 567.812 101.5C571.837 101.5 575 104.663 575 108.688C575 112.712 571.837 115.875 567.812 115.875ZM582.188 115.875C578.163 115.875 575 112.712 575 108.688C575 104.663 578.163 101.5 582.188 101.5C586.212 101.5 589.375 104.663 589.375 108.688C589.375 112.712 586.212 115.875 582.188 115.875ZM639.688 130.25C635.662 130.25 632.5 127.087 632.5 123.062C632.5 119.038 635.662 115.875 639.688 115.875C643.712 115.875 646.875 119.038 646.875 123.062C646.875 127.087 643.712 130.25 639.688 130.25ZM682.812 130.25C678.788 130.25 675.625 127.087 675.625 123.062C675.625 119.038 678.788 115.875 682.812 115.875C686.837 115.875 690 119.038 690 123.062C690 127.087 686.837 130.25 682.812 130.25ZM625.312 130.25C621.287 130.25 618.125 127.087 618.125 123.062C618.125 119.038 621.287 115.875 625.312 115.875C629.337 115.875 632.5 119.038 632.5 123.062C632.5 127.087 629.337 130.25 625.312 130.25ZM697.188 130.25C693.163 130.25 690 127.087 690 123.062C690 119.038 693.163 115.875 697.188 115.875C701.212 115.875 704.375 119.038 704.375 123.062C704.375 127.087 701.212 130.25 697.188 130.25ZM567.812 130.25C563.787 130.25 560.625 127.087 560.625 123.062C560.625 119.038 563.787 115.875 567.812 115.875C571.837 115.875 575 119.038 575 123.062C575 127.087 571.837 130.25 567.812 130.25ZM582.188 130.25C578.163 130.25 575 127.087 575 123.062C575 119.038 578.163 115.875 582.188 115.875C586.212 115.875 589.375 119.038 589.375 123.062C589.375 127.087 586.212 130.25 582.188 130.25ZM639.688 144.625C635.662 144.625 632.5 141.462 632.5 137.438C632.5 133.413 635.662 130.25 639.688 130.25C643.712 130.25 646.875 133.413 646.875 137.438C646.875 141.462 643.712 144.625 639.688 144.625ZM682.812 144.625C678.788 144.625 675.625 141.462 675.625 137.438C675.625 133.413 678.788 130.25 682.812 130.25C686.837 130.25 690 133.413 690 137.438C690 141.462 686.837 144.625 682.812 144.625ZM697.188 144.625C693.163 144.625 690 141.462 690 137.438C690 133.413 693.163 130.25 697.188 130.25C701.212 130.25 704.375 133.413 704.375 137.438C704.375 141.462 701.212 144.625 697.188 144.625ZM625.312 144.625C621.287 144.625 618.125 141.462 618.125 137.438C618.125 133.413 621.287 130.25 625.312 130.25C629.337 130.25 632.5 133.413 632.5 137.438C632.5 141.462 629.337 144.625 625.312 144.625ZM567.812 144.625C563.787 144.625 560.625 141.462 560.625 137.438C560.625 133.413 563.787 130.25 567.812 130.25C571.837 130.25 575 133.413 575 137.438C575 141.462 571.837 144.625 567.812 144.625ZM582.188 144.625C578.163 144.625 575 141.462 575 137.438C575 133.413 578.163 130.25 582.188 130.25C586.212 130.25 589.375 133.413 589.375 137.438C589.375 141.462 586.212 144.625 582.188 144.625ZM639.688 159C635.662 159 632.5 155.838 632.5 151.812C632.5 147.788 635.662 144.625 639.688 144.625C643.712 144.625 646.875 147.788 646.875 151.812C646.875 155.838 643.712 159 639.688 159ZM582.188 159C578.163 159 575 155.838 575 151.812C575 147.788 578.163 144.625 582.188 144.625C586.212 144.625 589.375 147.788 589.375 151.812C589.375 155.838 586.212 159 582.188 159ZM682.812 159C678.788 159 675.625 155.838 675.625 151.812C675.625 147.788 678.788 144.625 682.812 144.625C686.837 144.625 690 147.788 690 151.812C690 155.838 686.837 159 682.812 159ZM697.188 159C693.163 159 690 155.838 690 151.812C690 147.788 693.163 144.625 697.188 144.625C701.212 144.625 704.375 147.788 704.375 151.812C704.375 155.838 701.212 159 697.188 159ZM567.812 159C563.787 159 560.625 155.838 560.625 151.812C560.625 147.788 563.787 144.625 567.812 144.625C571.837 144.625 575 147.788 575 151.812C575 155.838 571.837 159 567.812 159ZM625.312 159C621.287 159 618.125 155.838 618.125 151.812C618.125 147.788 621.287 144.625 625.312 144.625C629.337 144.625 632.5 147.788 632.5 151.812C632.5 155.838 629.337 159 625.312 159ZM754.688 29.625C750.663 29.625 747.5 26.4625 747.5 22.4375C747.5 18.4125 750.663 15.25 754.688 15.25C758.712 15.25 761.875 18.4125 761.875 22.4375C761.875 26.4625 758.712 29.625 754.688 29.625ZM769.062 29.625C765.038 29.625 761.875 26.4625 761.875 22.4375C761.875 18.4125 765.038 15.25 769.062 15.25C773.087 15.25 776.25 18.4125 776.25 22.4375C776.25 26.4625 773.087 29.625 769.062 29.625ZM740.312 29.625C736.288 29.625 733.125 26.4625 733.125 22.4375C733.125 18.4125 736.288 15.25 740.312 15.25C744.337 15.25 747.5 18.4125 747.5 22.4375C747.5 26.4625 744.337 29.625 740.312 29.625ZM725.938 29.625C721.912 29.625 718.75 26.4625 718.75 22.4375C718.75 18.4125 721.912 15.25 725.938 15.25C729.962 15.25 733.125 18.4125 733.125 22.4375C733.125 26.4625 729.962 29.625 725.938 29.625ZM783.438 29.625C779.412 29.625 776.25 26.4625 776.25 22.4375C776.25 18.4125 779.412 15.25 783.438 15.25C787.462 15.25 790.625 18.4125 790.625 22.4375C790.625 26.4625 787.462 29.625 783.438 29.625ZM769.062 44C765.038 44 761.875 40.8375 761.875 36.8125C761.875 32.7875 765.038 29.625 769.062 29.625C773.087 29.625 776.25 32.7875 776.25 36.8125C776.25 40.8375 773.087 44 769.062 44ZM812.188 44C808.162 44 805 40.8375 805 36.8125C805 32.7875 808.162 29.625 812.188 29.625C816.212 29.625 819.375 32.7875 819.375 36.8125C819.375 40.8375 816.212 44 812.188 44ZM740.312 44C736.288 44 733.125 40.8375 733.125 36.8125C733.125 32.7875 736.288 29.625 740.312 29.625C744.337 29.625 747.5 32.7875 747.5 36.8125C747.5 40.8375 744.337 44 740.312 44ZM783.438 44C779.412 44 776.25 40.8375 776.25 36.8125C776.25 32.7875 779.412 29.625 783.438 29.625C787.462 29.625 790.625 32.7875 790.625 36.8125C790.625 40.8375 787.462 44 783.438 44ZM797.812 44C793.787 44 790.625 40.8375 790.625 36.8125C790.625 32.7875 793.787 29.625 797.812 29.625C801.837 29.625 805 32.7875 805 36.8125C805 40.8375 801.837 44 797.812 44ZM725.938 44C721.912 44 718.75 40.8375 718.75 36.8125C718.75 32.7875 721.912 29.625 725.938 29.625C729.962 29.625 733.125 32.7875 733.125 36.8125C733.125 40.8375 729.962 44 725.938 44ZM754.688 44C750.663 44 747.5 40.8375 747.5 36.8125C747.5 32.7875 750.663 29.625 754.688 29.625C758.712 29.625 761.875 32.7875 761.875 36.8125C761.875 40.8375 758.712 44 754.688 44ZM740.312 58.375C736.288 58.375 733.125 55.2125 733.125 51.1875C733.125 47.1625 736.288 44 740.312 44C744.337 44 747.5 47.1625 747.5 51.1875C747.5 55.2125 744.337 58.375 740.312 58.375ZM812.188 58.375C808.162 58.375 805 55.2125 805 51.1875C805 47.1625 808.162 44 812.188 44C816.212 44 819.375 47.1625 819.375 51.1875C819.375 55.2125 816.212 58.375 812.188 58.375ZM725.938 58.375C721.912 58.375 718.75 55.2125 718.75 51.1875C718.75 47.1625 721.912 44 725.938 44C729.962 44 733.125 47.1625 733.125 51.1875C733.125 55.2125 729.962 58.375 725.938 58.375ZM797.812 58.375C793.787 58.375 790.625 55.2125 790.625 51.1875C790.625 47.1625 793.787 44 797.812 44C801.837 44 805 47.1625 805 51.1875C805 55.2125 801.837 58.375 797.812 58.375ZM826.562 58.375C822.537 58.375 819.375 55.2125 819.375 51.1875C819.375 47.1625 822.537 44 826.562 44C830.587 44 833.75 47.1625 833.75 51.1875C833.75 55.2125 830.587 58.375 826.562 58.375ZM812.188 72.75C808.162 72.75 805 69.5875 805 65.5625C805 61.5375 808.162 58.375 812.188 58.375C816.212 58.375 819.375 61.5375 819.375 65.5625C819.375 69.5875 816.212 72.75 812.188 72.75ZM826.562 72.75C822.537 72.75 819.375 69.5875 819.375 65.5625C819.375 61.5375 822.537 58.375 826.562 58.375C830.587 58.375 833.75 61.5375 833.75 65.5625C833.75 69.5875 830.587 72.75 826.562 72.75ZM740.312 72.75C736.288 72.75 733.125 69.5875 733.125 65.5625C733.125 61.5375 736.288 58.375 740.312 58.375C744.337 58.375 747.5 61.5375 747.5 65.5625C747.5 69.5875 744.337 72.75 740.312 72.75ZM725.938 72.75C721.912 72.75 718.75 69.5875 718.75 65.5625C718.75 61.5375 721.912 58.375 725.938 58.375C729.962 58.375 733.125 61.5375 733.125 65.5625C733.125 69.5875 729.962 72.75 725.938 72.75ZM725.938 87.125C721.912 87.125 718.75 83.9625 718.75 79.9375C718.75 75.9125 721.912 72.75 725.938 72.75C729.962 72.75 733.125 75.9125 733.125 79.9375C733.125 83.9625 729.962 87.125 725.938 87.125ZM740.312 87.125C736.288 87.125 733.125 83.9625 733.125 79.9375C733.125 75.9125 736.288 72.75 740.312 72.75C744.337 72.75 747.5 75.9125 747.5 79.9375C747.5 83.9625 744.337 87.125 740.312 87.125ZM812.188 87.125C808.162 87.125 805 83.9625 805 79.9375C805 75.9125 808.162 72.75 812.188 72.75C816.212 72.75 819.375 75.9125 819.375 79.9375C819.375 83.9625 816.212 87.125 812.188 87.125ZM826.562 87.125C822.537 87.125 819.375 83.9625 819.375 79.9375C819.375 75.9125 822.537 72.75 826.562 72.75C830.587 72.75 833.75 75.9125 833.75 79.9375C833.75 83.9625 830.587 87.125 826.562 87.125ZM725.938 101.5C721.912 101.5 718.75 98.3375 718.75 94.3125C718.75 90.2875 721.912 87.125 725.938 87.125C729.962 87.125 733.125 90.2875 733.125 94.3125C733.125 98.3375 729.962 101.5 725.938 101.5ZM812.188 101.5C808.162 101.5 805 98.3375 805 94.3125C805 90.2875 808.162 87.125 812.188 87.125C816.212 87.125 819.375 90.2875 819.375 94.3125C819.375 98.3375 816.212 101.5 812.188 101.5ZM740.312 101.5C736.288 101.5 733.125 98.3375 733.125 94.3125C733.125 90.2875 736.288 87.125 740.312 87.125C744.337 87.125 747.5 90.2875 747.5 94.3125C747.5 98.3375 744.337 101.5 740.312 101.5ZM826.562 101.5C822.537 101.5 819.375 98.3375 819.375 94.3125C819.375 90.2875 822.537 87.125 826.562 87.125C830.587 87.125 833.75 90.2875 833.75 94.3125C833.75 98.3375 830.587 101.5 826.562 101.5ZM826.562 115.875C822.537 115.875 819.375 112.712 819.375 108.688C819.375 104.663 822.537 101.5 826.562 101.5C830.587 101.5 833.75 104.663 833.75 108.688C833.75 112.712 830.587 115.875 826.562 115.875ZM812.188 115.875C808.162 115.875 805 112.712 805 108.688C805 104.663 808.162 101.5 812.188 101.5C816.212 101.5 819.375 104.663 819.375 108.688C819.375 112.712 816.212 115.875 812.188 115.875ZM740.312 115.875C736.288 115.875 733.125 112.712 733.125 108.688C733.125 104.663 736.288 101.5 740.312 101.5C744.337 101.5 747.5 104.663 747.5 108.688C747.5 112.712 744.337 115.875 740.312 115.875ZM725.938 115.875C721.912 115.875 718.75 112.712 718.75 108.688C718.75 104.663 721.912 101.5 725.938 101.5C729.962 101.5 733.125 104.663 733.125 108.688C733.125 112.712 729.962 115.875 725.938 115.875ZM797.812 130.25C793.787 130.25 790.625 127.087 790.625 123.062C790.625 119.038 793.787 115.875 797.812 115.875C801.837 115.875 805 119.038 805 123.062C805 127.087 801.837 130.25 797.812 130.25ZM740.312 130.25C736.288 130.25 733.125 127.087 733.125 123.062C733.125 119.038 736.288 115.875 740.312 115.875C744.337 115.875 747.5 119.038 747.5 123.062C747.5 127.087 744.337 130.25 740.312 130.25ZM812.188 130.25C808.162 130.25 805 127.087 805 123.062C805 119.038 808.162 115.875 812.188 115.875C816.212 115.875 819.375 119.038 819.375 123.062C819.375 127.087 816.212 130.25 812.188 130.25ZM725.938 130.25C721.912 130.25 718.75 127.087 718.75 123.062C718.75 119.038 721.912 115.875 725.938 115.875C729.962 115.875 733.125 119.038 733.125 123.062C733.125 127.087 729.962 130.25 725.938 130.25ZM826.562 130.25C822.537 130.25 819.375 127.087 819.375 123.062C819.375 119.038 822.537 115.875 826.562 115.875C830.587 115.875 833.75 119.038 833.75 123.062C833.75 127.087 830.587 130.25 826.562 130.25ZM725.938 144.625C721.912 144.625 718.75 141.462 718.75 137.438C718.75 133.413 721.912 130.25 725.938 130.25C729.962 130.25 733.125 133.413 733.125 137.438C733.125 141.462 729.962 144.625 725.938 144.625ZM740.312 144.625C736.288 144.625 733.125 141.462 733.125 137.438C733.125 133.413 736.288 130.25 740.312 130.25C744.337 130.25 747.5 133.413 747.5 137.438C747.5 141.462 744.337 144.625 740.312 144.625ZM754.688 144.625C750.663 144.625 747.5 141.462 747.5 137.438C747.5 133.413 750.663 130.25 754.688 130.25C758.712 130.25 761.875 133.413 761.875 137.438C761.875 141.462 758.712 144.625 754.688 144.625ZM812.188 144.625C808.162 144.625 805 141.462 805 137.438C805 133.413 808.162 130.25 812.188 130.25C816.212 130.25 819.375 133.413 819.375 137.438C819.375 141.462 816.212 144.625 812.188 144.625ZM797.812 144.625C793.787 144.625 790.625 141.462 790.625 137.438C790.625 133.413 793.787 130.25 797.812 130.25C801.837 130.25 805 133.413 805 137.438C805 141.462 801.837 144.625 797.812 144.625ZM783.438 144.625C779.412 144.625 776.25 141.462 776.25 137.438C776.25 133.413 779.412 130.25 783.438 130.25C787.462 130.25 790.625 133.413 790.625 137.438C790.625 141.462 787.462 144.625 783.438 144.625ZM769.062 144.625C765.038 144.625 761.875 141.462 761.875 137.438C761.875 133.413 765.038 130.25 769.062 130.25C773.087 130.25 776.25 133.413 776.25 137.438C776.25 141.462 773.087 144.625 769.062 144.625ZM725.938 159C721.912 159 718.75 155.838 718.75 151.812C718.75 147.788 721.912 144.625 725.938 144.625C729.962 144.625 733.125 147.788 733.125 151.812C733.125 155.838 729.962 159 725.938 159ZM740.312 159C736.288 159 733.125 155.838 733.125 151.812C733.125 147.788 736.288 144.625 740.312 144.625C744.337 144.625 747.5 147.788 747.5 151.812C747.5 155.838 744.337 159 740.312 159ZM783.438 159C779.412 159 776.25 155.838 776.25 151.812C776.25 147.788 779.412 144.625 783.438 144.625C787.462 144.625 790.625 147.788 790.625 151.812C790.625 155.838 787.462 159 783.438 159ZM754.688 159C750.663 159 747.5 155.838 747.5 151.812C747.5 147.788 750.663 144.625 754.688 144.625C758.712 144.625 761.875 147.788 761.875 151.812C761.875 155.838 758.712 159 754.688 159ZM769.062 159C765.038 159 761.875 155.838 761.875 151.812C761.875 147.788 765.038 144.625 769.062 144.625C773.087 144.625 776.25 147.788 776.25 151.812C776.25 155.838 773.087 159 769.062 159ZM912.812 58.375C908.787 58.375 905.625 55.2125 905.625 51.1875C905.625 47.1625 908.787 44 912.812 44C916.837 44 920 47.1625 920 51.1875C920 55.2125 916.837 58.375 912.812 58.375ZM898.438 58.375C894.413 58.375 891.25 55.2125 891.25 51.1875C891.25 47.1625 894.413 44 898.438 44C902.462 44 905.625 47.1625 905.625 51.1875C905.625 55.2125 902.462 58.375 898.438 58.375ZM884.062 58.375C880.038 58.375 876.875 55.2125 876.875 51.1875C876.875 47.1625 880.038 44 884.062 44C888.087 44 891.25 47.1625 891.25 51.1875C891.25 55.2125 888.087 58.375 884.062 58.375ZM912.812 72.75C908.787 72.75 905.625 69.5875 905.625 65.5625C905.625 61.5375 908.787 58.375 912.812 58.375C916.837 58.375 920 61.5375 920 65.5625C920 69.5875 916.837 72.75 912.812 72.75ZM869.688 72.75C865.663 72.75 862.5 69.5875 862.5 65.5625C862.5 61.5375 865.663 58.375 869.688 58.375C873.712 58.375 876.875 61.5375 876.875 65.5625C876.875 69.5875 873.712 72.75 869.688 72.75ZM927.188 72.75C923.162 72.75 920 69.5875 920 65.5625C920 61.5375 923.162 58.375 927.188 58.375C931.212 58.375 934.375 61.5375 934.375 65.5625C934.375 69.5875 931.212 72.75 927.188 72.75ZM898.438 72.75C894.413 72.75 891.25 69.5875 891.25 65.5625C891.25 61.5375 894.413 58.375 898.438 58.375C902.462 58.375 905.625 61.5375 905.625 65.5625C905.625 69.5875 902.462 72.75 898.438 72.75ZM884.062 72.75C880.038 72.75 876.875 69.5875 876.875 65.5625C876.875 61.5375 880.038 58.375 884.062 58.375C888.087 58.375 891.25 61.5375 891.25 65.5625C891.25 69.5875 888.087 72.75 884.062 72.75ZM855.312 87.125C851.287 87.125 848.125 83.9625 848.125 79.9375C848.125 75.9125 851.287 72.75 855.312 72.75C859.337 72.75 862.5 75.9125 862.5 79.9375C862.5 83.9625 859.337 87.125 855.312 87.125ZM927.188 87.125C923.162 87.125 920 83.9625 920 79.9375C920 75.9125 923.162 72.75 927.188 72.75C931.212 72.75 934.375 75.9125 934.375 79.9375C934.375 83.9625 931.212 87.125 927.188 87.125ZM869.688 87.125C865.663 87.125 862.5 83.9625 862.5 79.9375C862.5 75.9125 865.663 72.75 869.688 72.75C873.712 72.75 876.875 75.9125 876.875 79.9375C876.875 83.9625 873.712 87.125 869.688 87.125ZM941.562 87.125C937.537 87.125 934.375 83.9625 934.375 79.9375C934.375 75.9125 937.537 72.75 941.562 72.75C945.587 72.75 948.75 75.9125 948.75 79.9375C948.75 83.9625 945.587 87.125 941.562 87.125ZM869.688 101.5C865.663 101.5 862.5 98.3375 862.5 94.3125C862.5 90.2875 865.663 87.125 869.688 87.125C873.712 87.125 876.875 90.2875 876.875 94.3125C876.875 98.3375 873.712 101.5 869.688 101.5ZM927.188 101.5C923.162 101.5 920 98.3375 920 94.3125C920 90.2875 923.162 87.125 927.188 87.125C931.212 87.125 934.375 90.2875 934.375 94.3125C934.375 98.3375 931.212 101.5 927.188 101.5ZM941.562 101.5C937.537 101.5 934.375 98.3375 934.375 94.3125C934.375 90.2875 937.537 87.125 941.562 87.125C945.587 87.125 948.75 90.2875 948.75 94.3125C948.75 98.3375 945.587 101.5 941.562 101.5ZM855.312 101.5C851.287 101.5 848.125 98.3375 848.125 94.3125C848.125 90.2875 851.287 87.125 855.312 87.125C859.337 87.125 862.5 90.2875 862.5 94.3125C862.5 98.3375 859.337 101.5 855.312 101.5ZM884.062 101.5C880.038 101.5 876.875 98.3375 876.875 94.3125C876.875 90.2875 880.038 87.125 884.062 87.125C888.087 87.125 891.25 90.2875 891.25 94.3125C891.25 98.3375 888.087 101.5 884.062 101.5ZM898.438 101.5C894.413 101.5 891.25 98.3375 891.25 94.3125C891.25 90.2875 894.413 87.125 898.438 87.125C902.462 87.125 905.625 90.2875 905.625 94.3125C905.625 98.3375 902.462 101.5 898.438 101.5ZM912.812 101.5C908.787 101.5 905.625 98.3375 905.625 94.3125C905.625 90.2875 908.787 87.125 912.812 87.125C916.837 87.125 920 90.2875 920 94.3125C920 98.3375 916.837 101.5 912.812 101.5ZM869.688 115.875C865.663 115.875 862.5 112.712 862.5 108.688C862.5 104.663 865.663 101.5 869.688 101.5C873.712 101.5 876.875 104.663 876.875 108.688C876.875 112.712 873.712 115.875 869.688 115.875ZM884.062 115.875C880.038 115.875 876.875 112.712 876.875 108.688C876.875 104.663 880.038 101.5 884.062 101.5C888.087 101.5 891.25 104.663 891.25 108.688C891.25 112.712 888.087 115.875 884.062 115.875ZM898.438 115.875C894.413 115.875 891.25 112.712 891.25 108.688C891.25 104.663 894.413 101.5 898.438 101.5C902.462 101.5 905.625 104.663 905.625 108.688C905.625 112.712 902.462 115.875 898.438 115.875ZM912.812 115.875C908.787 115.875 905.625 112.712 905.625 108.688C905.625 104.663 908.787 101.5 912.812 101.5C916.837 101.5 920 104.663 920 108.688C920 112.712 916.837 115.875 912.812 115.875ZM927.188 115.875C923.162 115.875 920 112.712 920 108.688C920 104.663 923.162 101.5 927.188 101.5C931.212 101.5 934.375 104.663 934.375 108.688C934.375 112.712 931.212 115.875 927.188 115.875ZM941.562 115.875C937.537 115.875 934.375 112.712 934.375 108.688C934.375 104.663 937.537 101.5 941.562 101.5C945.587 101.5 948.75 104.663 948.75 108.688C948.75 112.712 945.587 115.875 941.562 115.875ZM855.312 115.875C851.287 115.875 848.125 112.712 848.125 108.688C848.125 104.663 851.287 101.5 855.312 101.5C859.337 101.5 862.5 104.663 862.5 108.688C862.5 112.712 859.337 115.875 855.312 115.875ZM869.688 130.25C865.663 130.25 862.5 127.087 862.5 123.062C862.5 119.038 865.663 115.875 869.688 115.875C873.712 115.875 876.875 119.038 876.875 123.062C876.875 127.087 873.712 130.25 869.688 130.25ZM855.312 130.25C851.287 130.25 848.125 127.087 848.125 123.062C848.125 119.038 851.287 115.875 855.312 115.875C859.337 115.875 862.5 119.038 862.5 123.062C862.5 127.087 859.337 130.25 855.312 130.25ZM869.688 144.625C865.663 144.625 862.5 141.462 862.5 137.438C862.5 133.413 865.663 130.25 869.688 130.25C873.712 130.25 876.875 133.413 876.875 137.438C876.875 141.462 873.712 144.625 869.688 144.625ZM884.062 144.625C880.038 144.625 876.875 141.462 876.875 137.438C876.875 133.413 880.038 130.25 884.062 130.25C888.087 130.25 891.25 133.413 891.25 137.438C891.25 141.462 888.087 144.625 884.062 144.625ZM898.438 144.625C894.413 144.625 891.25 141.462 891.25 137.438C891.25 133.413 894.413 130.25 898.438 130.25C902.462 130.25 905.625 133.413 905.625 137.438C905.625 141.462 902.462 144.625 898.438 144.625ZM912.812 144.625C908.787 144.625 905.625 141.462 905.625 137.438C905.625 133.413 908.787 130.25 912.812 130.25C916.837 130.25 920 133.413 920 137.438C920 141.462 916.837 144.625 912.812 144.625ZM927.188 144.625C923.162 144.625 920 141.462 920 137.438C920 133.413 923.162 130.25 927.188 130.25C931.212 130.25 934.375 133.413 934.375 137.438C934.375 141.462 931.212 144.625 927.188 144.625ZM941.562 144.625C937.537 144.625 934.375 141.462 934.375 137.438C934.375 133.413 937.537 130.25 941.562 130.25C945.587 130.25 948.75 133.413 948.75 137.438C948.75 141.462 945.587 144.625 941.562 144.625ZM884.062 159C880.038 159 876.875 155.838 876.875 151.812C876.875 147.788 880.038 144.625 884.062 144.625C888.087 144.625 891.25 147.788 891.25 151.812C891.25 155.838 888.087 159 884.062 159ZM898.438 159C894.413 159 891.25 155.838 891.25 151.812C891.25 147.788 894.413 144.625 898.438 144.625C902.462 144.625 905.625 147.788 905.625 151.812C905.625 155.838 902.462 159 898.438 159ZM912.812 159C908.787 159 905.625 155.838 905.625 151.812C905.625 147.788 908.787 144.625 912.812 144.625C916.837 144.625 920 147.788 920 151.812C920 155.838 916.837 159 912.812 159ZM927.188 159C923.162 159 920 155.838 920 151.812C920 147.788 923.162 144.625 927.188 144.625C931.212 144.625 934.375 147.788 934.375 151.812C934.375 155.838 931.212 159 927.188 159ZM1013.44 58.375C1009.41 58.375 1006.25 55.2125 1006.25 51.1875C1006.25 47.1625 1009.41 44 1013.44 44C1017.46 44 1020.62 47.1625 1020.62 51.1875C1020.62 55.2125 1017.46 58.375 1013.44 58.375ZM1042.19 58.375C1038.16 58.375 1035 55.2125 1035 51.1875C1035 47.1625 1038.16 44 1042.19 44C1046.21 44 1049.38 47.1625 1049.38 51.1875C1049.38 55.2125 1046.21 58.375 1042.19 58.375ZM1027.81 58.375C1023.79 58.375 1020.62 55.2125 1020.62 51.1875C1020.62 47.1625 1023.79 44 1027.81 44C1031.84 44 1035 47.1625 1035 51.1875C1035 55.2125 1031.84 58.375 1027.81 58.375ZM999.062 58.375C995.038 58.375 991.875 55.2125 991.875 51.1875C991.875 47.1625 995.038 44 999.062 44C1003.09 44 1006.25 47.1625 1006.25 51.1875C1006.25 55.2125 1003.09 58.375 999.062 58.375ZM984.688 58.375C980.663 58.375 977.5 55.2125 977.5 51.1875C977.5 47.1625 980.663 44 984.688 44C988.712 44 991.875 47.1625 991.875 51.1875C991.875 55.2125 988.712 58.375 984.688 58.375ZM1027.81 72.75C1023.79 72.75 1020.62 69.5875 1020.62 65.5625C1020.62 61.5375 1023.79 58.375 1027.81 58.375C1031.84 58.375 1035 61.5375 1035 65.5625C1035 69.5875 1031.84 72.75 1027.81 72.75ZM1013.44 72.75C1009.41 72.75 1006.25 69.5875 1006.25 65.5625C1006.25 61.5375 1009.41 58.375 1013.44 58.375C1017.46 58.375 1020.62 61.5375 1020.62 65.5625C1020.62 69.5875 1017.46 72.75 1013.44 72.75ZM999.062 72.75C995.038 72.75 991.875 69.5875 991.875 65.5625C991.875 61.5375 995.038 58.375 999.062 58.375C1003.09 58.375 1006.25 61.5375 1006.25 65.5625C1006.25 69.5875 1003.09 72.75 999.062 72.75ZM1042.19 72.75C1038.16 72.75 1035 69.5875 1035 65.5625C1035 61.5375 1038.16 58.375 1042.19 58.375C1046.21 58.375 1049.38 61.5375 1049.38 65.5625C1049.38 69.5875 1046.21 72.75 1042.19 72.75ZM1056.56 72.75C1052.54 72.75 1049.38 69.5875 1049.38 65.5625C1049.38 61.5375 1052.54 58.375 1056.56 58.375C1060.59 58.375 1063.75 61.5375 1063.75 65.5625C1063.75 69.5875 1060.59 72.75 1056.56 72.75ZM970.312 72.75C966.287 72.75 963.125 69.5875 963.125 65.5625C963.125 61.5375 966.287 58.375 970.312 58.375C974.337 58.375 977.5 61.5375 977.5 65.5625C977.5 69.5875 974.337 72.75 970.312 72.75ZM984.688 72.75C980.663 72.75 977.5 69.5875 977.5 65.5625C977.5 61.5375 980.663 58.375 984.688 58.375C988.712 58.375 991.875 61.5375 991.875 65.5625C991.875 69.5875 988.712 72.75 984.688 72.75ZM970.312 87.125C966.287 87.125 963.125 83.9625 963.125 79.9375C963.125 75.9125 966.287 72.75 970.312 72.75C974.337 72.75 977.5 75.9125 977.5 79.9375C977.5 83.9625 974.337 87.125 970.312 87.125ZM984.688 87.125C980.663 87.125 977.5 83.9625 977.5 79.9375C977.5 75.9125 980.663 72.75 984.688 72.75C988.712 72.75 991.875 75.9125 991.875 79.9375C991.875 83.9625 988.712 87.125 984.688 87.125ZM1042.19 101.5C1038.16 101.5 1035 98.3375 1035 94.3125C1035 90.2875 1038.16 87.125 1042.19 87.125C1046.21 87.125 1049.38 90.2875 1049.38 94.3125C1049.38 98.3375 1046.21 101.5 1042.19 101.5ZM1027.81 101.5C1023.79 101.5 1020.62 98.3375 1020.62 94.3125C1020.62 90.2875 1023.79 87.125 1027.81 87.125C1031.84 87.125 1035 90.2875 1035 94.3125C1035 98.3375 1031.84 101.5 1027.81 101.5ZM1013.44 101.5C1009.41 101.5 1006.25 98.3375 1006.25 94.3125C1006.25 90.2875 1009.41 87.125 1013.44 87.125C1017.46 87.125 1020.62 90.2875 1020.62 94.3125C1020.62 98.3375 1017.46 101.5 1013.44 101.5ZM999.062 101.5C995.038 101.5 991.875 98.3375 991.875 94.3125C991.875 90.2875 995.038 87.125 999.062 87.125C1003.09 87.125 1006.25 90.2875 1006.25 94.3125C1006.25 98.3375 1003.09 101.5 999.062 101.5ZM984.688 101.5C980.663 101.5 977.5 98.3375 977.5 94.3125C977.5 90.2875 980.663 87.125 984.688 87.125C988.712 87.125 991.875 90.2875 991.875 94.3125C991.875 98.3375 988.712 101.5 984.688 101.5ZM970.312 101.5C966.287 101.5 963.125 98.3375 963.125 94.3125C963.125 90.2875 966.287 87.125 970.312 87.125C974.337 87.125 977.5 90.2875 977.5 94.3125C977.5 98.3375 974.337 101.5 970.312 101.5ZM1056.56 115.875C1052.54 115.875 1049.38 112.712 1049.38 108.688C1049.38 104.663 1052.54 101.5 1056.56 101.5C1060.59 101.5 1063.75 104.663 1063.75 108.688C1063.75 112.712 1060.59 115.875 1056.56 115.875ZM1027.81 115.875C1023.79 115.875 1020.62 112.712 1020.62 108.688C1020.62 104.663 1023.79 101.5 1027.81 101.5C1031.84 101.5 1035 104.663 1035 108.688C1035 112.712 1031.84 115.875 1027.81 115.875ZM1042.19 115.875C1038.16 115.875 1035 112.712 1035 108.688C1035 104.663 1038.16 101.5 1042.19 101.5C1046.21 101.5 1049.38 104.663 1049.38 108.688C1049.38 112.712 1046.21 115.875 1042.19 115.875ZM999.062 115.875C995.038 115.875 991.875 112.712 991.875 108.688C991.875 104.663 995.038 101.5 999.062 101.5C1003.09 101.5 1006.25 104.663 1006.25 108.688C1006.25 112.712 1003.09 115.875 999.062 115.875ZM1013.44 115.875C1009.41 115.875 1006.25 112.712 1006.25 108.688C1006.25 104.663 1009.41 101.5 1013.44 101.5C1017.46 101.5 1020.62 104.663 1020.62 108.688C1020.62 112.712 1017.46 115.875 1013.44 115.875ZM984.688 115.875C980.663 115.875 977.5 112.712 977.5 108.688C977.5 104.663 980.663 101.5 984.688 101.5C988.712 101.5 991.875 104.663 991.875 108.688C991.875 112.712 988.712 115.875 984.688 115.875ZM1056.56 130.25C1052.54 130.25 1049.38 127.087 1049.38 123.062C1049.38 119.038 1052.54 115.875 1056.56 115.875C1060.59 115.875 1063.75 119.038 1063.75 123.062C1063.75 127.087 1060.59 130.25 1056.56 130.25ZM1042.19 130.25C1038.16 130.25 1035 127.087 1035 123.062C1035 119.038 1038.16 115.875 1042.19 115.875C1046.21 115.875 1049.38 119.038 1049.38 123.062C1049.38 127.087 1046.21 130.25 1042.19 130.25ZM1056.56 144.625C1052.54 144.625 1049.38 141.462 1049.38 137.438C1049.38 133.413 1052.54 130.25 1056.56 130.25C1060.59 130.25 1063.75 133.413 1063.75 137.438C1063.75 141.462 1060.59 144.625 1056.56 144.625ZM1042.19 144.625C1038.16 144.625 1035 141.462 1035 137.438C1035 133.413 1038.16 130.25 1042.19 130.25C1046.21 130.25 1049.38 133.413 1049.38 137.438C1049.38 141.462 1046.21 144.625 1042.19 144.625ZM999.062 144.625C995.038 144.625 991.875 141.462 991.875 137.438C991.875 133.413 995.038 130.25 999.062 130.25C1003.09 130.25 1006.25 133.413 1006.25 137.438C1006.25 141.462 1003.09 144.625 999.062 144.625ZM1013.44 144.625C1009.41 144.625 1006.25 141.462 1006.25 137.438C1006.25 133.413 1009.41 130.25 1013.44 130.25C1017.46 130.25 1020.62 133.413 1020.62 137.438C1020.62 141.462 1017.46 144.625 1013.44 144.625ZM1027.81 144.625C1023.79 144.625 1020.62 141.462 1020.62 137.438C1020.62 133.413 1023.79 130.25 1027.81 130.25C1031.84 130.25 1035 133.413 1035 137.438C1035 141.462 1031.84 144.625 1027.81 144.625ZM984.688 144.625C980.663 144.625 977.5 141.462 977.5 137.438C977.5 133.413 980.663 130.25 984.688 130.25C988.712 130.25 991.875 133.413 991.875 137.438C991.875 141.462 988.712 144.625 984.688 144.625ZM970.312 144.625C966.287 144.625 963.125 141.462 963.125 137.438C963.125 133.413 966.287 130.25 970.312 130.25C974.337 130.25 977.5 133.413 977.5 137.438C977.5 141.462 974.337 144.625 970.312 144.625ZM1013.44 159C1009.41 159 1006.25 155.838 1006.25 151.812C1006.25 147.788 1009.41 144.625 1013.44 144.625C1017.46 144.625 1020.62 147.788 1020.62 151.812C1020.62 155.838 1017.46 159 1013.44 159ZM1042.19 159C1038.16 159 1035 155.838 1035 151.812C1035 147.788 1038.16 144.625 1042.19 144.625C1046.21 144.625 1049.38 147.788 1049.38 151.812C1049.38 155.838 1046.21 159 1042.19 159ZM1027.81 159C1023.79 159 1020.62 155.838 1020.62 151.812C1020.62 147.788 1023.79 144.625 1027.81 144.625C1031.84 144.625 1035 147.788 1035 151.812C1035 155.838 1031.84 159 1027.81 159ZM999.062 159C995.038 159 991.875 155.838 991.875 151.812C991.875 147.788 995.038 144.625 999.062 144.625C1003.09 144.625 1006.25 147.788 1006.25 151.812C1006.25 155.838 1003.09 159 999.062 159ZM984.688 159C980.663 159 977.5 155.838 977.5 151.812C977.5 147.788 980.663 144.625 984.688 144.625C988.712 144.625 991.875 147.788 991.875 151.812C991.875 155.838 988.712 159 984.688 159ZM1085.31 15.25C1081.29 15.25 1078.12 12.0875 1078.12 8.0625C1078.12 4.0375 1081.29 0.875 1085.31 0.875C1089.34 0.875 1092.5 4.0375 1092.5 8.0625C1092.5 12.0875 1089.34 15.25 1085.31 15.25ZM1099.69 15.25C1095.66 15.25 1092.5 12.0875 1092.5 8.0625C1092.5 4.0375 1095.66 0.875 1099.69 0.875C1103.71 0.875 1106.88 4.0375 1106.88 8.0625C1106.88 12.0875 1103.71 15.25 1099.69 15.25ZM1085.31 29.625C1081.29 29.625 1078.12 26.4625 1078.12 22.4375C1078.12 18.4125 1081.29 15.25 1085.31 15.25C1089.34 15.25 1092.5 18.4125 1092.5 22.4375C1092.5 26.4625 1089.34 29.625 1085.31 29.625ZM1099.69 29.625C1095.66 29.625 1092.5 26.4625 1092.5 22.4375C1092.5 18.4125 1095.66 15.25 1099.69 15.25C1103.71 15.25 1106.88 18.4125 1106.88 22.4375C1106.88 26.4625 1103.71 29.625 1099.69 29.625ZM1085.31 58.375C1081.29 58.375 1078.12 55.2125 1078.12 51.1875C1078.12 47.1625 1081.29 44 1085.31 44C1089.34 44 1092.5 47.1625 1092.5 51.1875C1092.5 55.2125 1089.34 58.375 1085.31 58.375ZM1099.69 58.375C1095.66 58.375 1092.5 55.2125 1092.5 51.1875C1092.5 47.1625 1095.66 44 1099.69 44C1103.71 44 1106.88 47.1625 1106.88 51.1875C1106.88 55.2125 1103.71 58.375 1099.69 58.375ZM1085.31 72.75C1081.29 72.75 1078.12 69.5875 1078.12 65.5625C1078.12 61.5375 1081.29 58.375 1085.31 58.375C1089.34 58.375 1092.5 61.5375 1092.5 65.5625C1092.5 69.5875 1089.34 72.75 1085.31 72.75ZM1099.69 72.75C1095.66 72.75 1092.5 69.5875 1092.5 65.5625C1092.5 61.5375 1095.66 58.375 1099.69 58.375C1103.71 58.375 1106.88 61.5375 1106.88 65.5625C1106.88 69.5875 1103.71 72.75 1099.69 72.75ZM1085.31 87.125C1081.29 87.125 1078.12 83.9625 1078.12 79.9375C1078.12 75.9125 1081.29 72.75 1085.31 72.75C1089.34 72.75 1092.5 75.9125 1092.5 79.9375C1092.5 83.9625 1089.34 87.125 1085.31 87.125ZM1099.69 87.125C1095.66 87.125 1092.5 83.9625 1092.5 79.9375C1092.5 75.9125 1095.66 72.75 1099.69 72.75C1103.71 72.75 1106.88 75.9125 1106.88 79.9375C1106.88 83.9625 1103.71 87.125 1099.69 87.125ZM1085.31 101.5C1081.29 101.5 1078.12 98.3375 1078.12 94.3125C1078.12 90.2875 1081.29 87.125 1085.31 87.125C1089.34 87.125 1092.5 90.2875 1092.5 94.3125C1092.5 98.3375 1089.34 101.5 1085.31 101.5ZM1099.69 101.5C1095.66 101.5 1092.5 98.3375 1092.5 94.3125C1092.5 90.2875 1095.66 87.125 1099.69 87.125C1103.71 87.125 1106.88 90.2875 1106.88 94.3125C1106.88 98.3375 1103.71 101.5 1099.69 101.5ZM1085.31 115.875C1081.29 115.875 1078.12 112.712 1078.12 108.688C1078.12 104.663 1081.29 101.5 1085.31 101.5C1089.34 101.5 1092.5 104.663 1092.5 108.688C1092.5 112.712 1089.34 115.875 1085.31 115.875ZM1099.69 115.875C1095.66 115.875 1092.5 112.712 1092.5 108.688C1092.5 104.663 1095.66 101.5 1099.69 101.5C1103.71 101.5 1106.88 104.663 1106.88 108.688C1106.88 112.712 1103.71 115.875 1099.69 115.875ZM1085.31 130.25C1081.29 130.25 1078.12 127.087 1078.12 123.062C1078.12 119.038 1081.29 115.875 1085.31 115.875C1089.34 115.875 1092.5 119.038 1092.5 123.062C1092.5 127.087 1089.34 130.25 1085.31 130.25ZM1099.69 130.25C1095.66 130.25 1092.5 127.087 1092.5 123.062C1092.5 119.038 1095.66 115.875 1099.69 115.875C1103.71 115.875 1106.88 119.038 1106.88 123.062C1106.88 127.087 1103.71 130.25 1099.69 130.25ZM1085.31 144.625C1081.29 144.625 1078.12 141.462 1078.12 137.438C1078.12 133.413 1081.29 130.25 1085.31 130.25C1089.34 130.25 1092.5 133.413 1092.5 137.438C1092.5 141.462 1089.34 144.625 1085.31 144.625ZM1099.69 144.625C1095.66 144.625 1092.5 141.462 1092.5 137.438C1092.5 133.413 1095.66 130.25 1099.69 130.25C1103.71 130.25 1106.88 133.413 1106.88 137.438C1106.88 141.462 1103.71 144.625 1099.69 144.625ZM1099.69 159C1095.66 159 1092.5 155.838 1092.5 151.812C1092.5 147.788 1095.66 144.625 1099.69 144.625C1103.71 144.625 1106.88 147.788 1106.88 151.812C1106.88 155.838 1103.71 159 1099.69 159ZM1085.31 159C1081.29 159 1078.12 155.838 1078.12 151.812C1078.12 147.788 1081.29 144.625 1085.31 144.625C1089.34 144.625 1092.5 147.788 1092.5 151.812C1092.5 155.838 1089.34 159 1085.31 159ZM1171.56 58.375C1167.54 58.375 1164.38 55.2125 1164.38 51.1875C1164.38 47.1625 1167.54 44 1171.56 44C1175.59 44 1178.75 47.1625 1178.75 51.1875C1178.75 55.2125 1175.59 58.375 1171.56 58.375ZM1214.69 58.375C1210.66 58.375 1207.5 55.2125 1207.5 51.1875C1207.5 47.1625 1210.66 44 1214.69 44C1218.71 44 1221.88 47.1625 1221.88 51.1875C1221.88 55.2125 1218.71 58.375 1214.69 58.375ZM1142.81 58.375C1138.79 58.375 1135.62 55.2125 1135.62 51.1875C1135.62 47.1625 1138.79 44 1142.81 44C1146.84 44 1150 47.1625 1150 51.1875C1150 55.2125 1146.84 58.375 1142.81 58.375ZM1157.19 58.375C1153.16 58.375 1150 55.2125 1150 51.1875C1150 47.1625 1153.16 44 1157.19 44C1161.21 44 1164.38 47.1625 1164.38 51.1875C1164.38 55.2125 1161.21 58.375 1157.19 58.375ZM1185.94 58.375C1181.91 58.375 1178.75 55.2125 1178.75 51.1875C1178.75 47.1625 1181.91 44 1185.94 44C1189.96 44 1193.12 47.1625 1193.12 51.1875C1193.12 55.2125 1189.96 58.375 1185.94 58.375ZM1214.69 72.75C1210.66 72.75 1207.5 69.5875 1207.5 65.5625C1207.5 61.5375 1210.66 58.375 1214.69 58.375C1218.71 58.375 1221.88 61.5375 1221.88 65.5625C1221.88 69.5875 1218.71 72.75 1214.69 72.75ZM1142.81 72.75C1138.79 72.75 1135.62 69.5875 1135.62 65.5625C1135.62 61.5375 1138.79 58.375 1142.81 58.375C1146.84 58.375 1150 61.5375 1150 65.5625C1150 69.5875 1146.84 72.75 1142.81 72.75ZM1157.19 72.75C1153.16 72.75 1150 69.5875 1150 65.5625C1150 61.5375 1153.16 58.375 1157.19 58.375C1161.21 58.375 1164.38 61.5375 1164.38 65.5625C1164.38 69.5875 1161.21 72.75 1157.19 72.75ZM1171.56 72.75C1167.54 72.75 1164.38 69.5875 1164.38 65.5625C1164.38 61.5375 1167.54 58.375 1171.56 58.375C1175.59 58.375 1178.75 61.5375 1178.75 65.5625C1178.75 69.5875 1175.59 72.75 1171.56 72.75ZM1185.94 72.75C1181.91 72.75 1178.75 69.5875 1178.75 65.5625C1178.75 61.5375 1181.91 58.375 1185.94 58.375C1189.96 58.375 1193.12 61.5375 1193.12 65.5625C1193.12 69.5875 1189.96 72.75 1185.94 72.75ZM1200.31 72.75C1196.29 72.75 1193.12 69.5875 1193.12 65.5625C1193.12 61.5375 1196.29 58.375 1200.31 58.375C1204.34 58.375 1207.5 61.5375 1207.5 65.5625C1207.5 69.5875 1204.34 72.75 1200.31 72.75ZM1128.44 72.75C1124.41 72.75 1121.25 69.5875 1121.25 65.5625C1121.25 61.5375 1124.41 58.375 1128.44 58.375C1132.46 58.375 1135.62 61.5375 1135.62 65.5625C1135.62 69.5875 1132.46 72.75 1128.44 72.75ZM1200.31 87.125C1196.29 87.125 1193.12 83.9625 1193.12 79.9375C1193.12 75.9125 1196.29 72.75 1200.31 72.75C1204.34 72.75 1207.5 75.9125 1207.5 79.9375C1207.5 83.9625 1204.34 87.125 1200.31 87.125ZM1214.69 87.125C1210.66 87.125 1207.5 83.9625 1207.5 79.9375C1207.5 75.9125 1210.66 72.75 1214.69 72.75C1218.71 72.75 1221.88 75.9125 1221.88 79.9375C1221.88 83.9625 1218.71 87.125 1214.69 87.125ZM1128.44 87.125C1124.41 87.125 1121.25 83.9625 1121.25 79.9375C1121.25 75.9125 1124.41 72.75 1128.44 72.75C1132.46 72.75 1135.62 75.9125 1135.62 79.9375C1135.62 83.9625 1132.46 87.125 1128.44 87.125ZM1142.81 87.125C1138.79 87.125 1135.62 83.9625 1135.62 79.9375C1135.62 75.9125 1138.79 72.75 1142.81 72.75C1146.84 72.75 1150 75.9125 1150 79.9375C1150 83.9625 1146.84 87.125 1142.81 87.125ZM1128.44 101.5C1124.41 101.5 1121.25 98.3375 1121.25 94.3125C1121.25 90.2875 1124.41 87.125 1128.44 87.125C1132.46 87.125 1135.62 90.2875 1135.62 94.3125C1135.62 98.3375 1132.46 101.5 1128.44 101.5ZM1200.31 101.5C1196.29 101.5 1193.12 98.3375 1193.12 94.3125C1193.12 90.2875 1196.29 87.125 1200.31 87.125C1204.34 87.125 1207.5 90.2875 1207.5 94.3125C1207.5 98.3375 1204.34 101.5 1200.31 101.5ZM1142.81 101.5C1138.79 101.5 1135.62 98.3375 1135.62 94.3125C1135.62 90.2875 1138.79 87.125 1142.81 87.125C1146.84 87.125 1150 90.2875 1150 94.3125C1150 98.3375 1146.84 101.5 1142.81 101.5ZM1214.69 101.5C1210.66 101.5 1207.5 98.3375 1207.5 94.3125C1207.5 90.2875 1210.66 87.125 1214.69 87.125C1218.71 87.125 1221.88 90.2875 1221.88 94.3125C1221.88 98.3375 1218.71 101.5 1214.69 101.5ZM1200.31 115.875C1196.29 115.875 1193.12 112.712 1193.12 108.688C1193.12 104.663 1196.29 101.5 1200.31 101.5C1204.34 101.5 1207.5 104.663 1207.5 108.688C1207.5 112.712 1204.34 115.875 1200.31 115.875ZM1142.81 115.875C1138.79 115.875 1135.62 112.712 1135.62 108.688C1135.62 104.663 1138.79 101.5 1142.81 101.5C1146.84 101.5 1150 104.663 1150 108.688C1150 112.712 1146.84 115.875 1142.81 115.875ZM1128.44 115.875C1124.41 115.875 1121.25 112.712 1121.25 108.688C1121.25 104.663 1124.41 101.5 1128.44 101.5C1132.46 101.5 1135.62 104.663 1135.62 108.688C1135.62 112.712 1132.46 115.875 1128.44 115.875ZM1214.69 115.875C1210.66 115.875 1207.5 112.712 1207.5 108.688C1207.5 104.663 1210.66 101.5 1214.69 101.5C1218.71 101.5 1221.88 104.663 1221.88 108.688C1221.88 112.712 1218.71 115.875 1214.69 115.875ZM1128.44 130.25C1124.41 130.25 1121.25 127.087 1121.25 123.062C1121.25 119.038 1124.41 115.875 1128.44 115.875C1132.46 115.875 1135.62 119.038 1135.62 123.062C1135.62 127.087 1132.46 130.25 1128.44 130.25ZM1200.31 130.25C1196.29 130.25 1193.12 127.087 1193.12 123.062C1193.12 119.038 1196.29 115.875 1200.31 115.875C1204.34 115.875 1207.5 119.038 1207.5 123.062C1207.5 127.087 1204.34 130.25 1200.31 130.25ZM1185.94 130.25C1181.91 130.25 1178.75 127.087 1178.75 123.062C1178.75 119.038 1181.91 115.875 1185.94 115.875C1189.96 115.875 1193.12 119.038 1193.12 123.062C1193.12 127.087 1189.96 130.25 1185.94 130.25ZM1171.56 130.25C1167.54 130.25 1164.38 127.087 1164.38 123.062C1164.38 119.038 1167.54 115.875 1171.56 115.875C1175.59 115.875 1178.75 119.038 1178.75 123.062C1178.75 127.087 1175.59 130.25 1171.56 130.25ZM1157.19 130.25C1153.16 130.25 1150 127.087 1150 123.062C1150 119.038 1153.16 115.875 1157.19 115.875C1161.21 115.875 1164.38 119.038 1164.38 123.062C1164.38 127.087 1161.21 130.25 1157.19 130.25ZM1142.81 130.25C1138.79 130.25 1135.62 127.087 1135.62 123.062C1135.62 119.038 1138.79 115.875 1142.81 115.875C1146.84 115.875 1150 119.038 1150 123.062C1150 127.087 1146.84 130.25 1142.81 130.25ZM1214.69 130.25C1210.66 130.25 1207.5 127.087 1207.5 123.062C1207.5 119.038 1210.66 115.875 1214.69 115.875C1218.71 115.875 1221.88 119.038 1221.88 123.062C1221.88 127.087 1218.71 130.25 1214.69 130.25ZM1142.81 144.625C1138.79 144.625 1135.62 141.462 1135.62 137.438C1135.62 133.413 1138.79 130.25 1142.81 130.25C1146.84 130.25 1150 133.413 1150 137.438C1150 141.462 1146.84 144.625 1142.81 144.625ZM1214.69 144.625C1210.66 144.625 1207.5 141.462 1207.5 137.438C1207.5 133.413 1210.66 130.25 1214.69 130.25C1218.71 130.25 1221.88 133.413 1221.88 137.438C1221.88 141.462 1218.71 144.625 1214.69 144.625ZM1200.31 144.625C1196.29 144.625 1193.12 141.462 1193.12 137.438C1193.12 133.413 1196.29 130.25 1200.31 130.25C1204.34 130.25 1207.5 133.413 1207.5 137.438C1207.5 141.462 1204.34 144.625 1200.31 144.625ZM1171.56 144.625C1167.54 144.625 1164.38 141.462 1164.38 137.438C1164.38 133.413 1167.54 130.25 1171.56 130.25C1175.59 130.25 1178.75 133.413 1178.75 137.438C1178.75 141.462 1175.59 144.625 1171.56 144.625ZM1157.19 144.625C1153.16 144.625 1150 141.462 1150 137.438C1150 133.413 1153.16 130.25 1157.19 130.25C1161.21 130.25 1164.38 133.413 1164.38 137.438C1164.38 141.462 1161.21 144.625 1157.19 144.625ZM1214.69 159C1210.66 159 1207.5 155.838 1207.5 151.812C1207.5 147.788 1210.66 144.625 1214.69 144.625C1218.71 144.625 1221.88 147.788 1221.88 151.812C1221.88 155.838 1218.71 159 1214.69 159ZM1200.31 159C1196.29 159 1193.12 155.838 1193.12 151.812C1193.12 147.788 1196.29 144.625 1200.31 144.625C1204.34 144.625 1207.5 147.788 1207.5 151.812C1207.5 155.838 1204.34 159 1200.31 159ZM1214.69 173.375C1210.66 173.375 1207.5 170.212 1207.5 166.188C1207.5 162.162 1210.66 159 1214.69 159C1218.71 159 1221.88 162.162 1221.88 166.188C1221.88 170.212 1218.71 173.375 1214.69 173.375ZM1185.94 173.375C1181.91 173.375 1178.75 170.212 1178.75 166.188C1178.75 162.162 1181.91 159 1185.94 159C1189.96 159 1193.12 162.162 1193.12 166.188C1193.12 170.212 1189.96 173.375 1185.94 173.375ZM1171.56 173.375C1167.54 173.375 1164.38 170.212 1164.38 166.188C1164.38 162.162 1167.54 159 1171.56 159C1175.59 159 1178.75 162.162 1178.75 166.188C1178.75 170.212 1175.59 173.375 1171.56 173.375ZM1157.19 173.375C1153.16 173.375 1150 170.212 1150 166.188C1150 162.162 1153.16 159 1157.19 159C1161.21 159 1164.38 162.162 1164.38 166.188C1164.38 170.212 1161.21 173.375 1157.19 173.375ZM1128.44 173.375C1124.41 173.375 1121.25 170.212 1121.25 166.188C1121.25 162.162 1124.41 159 1128.44 159C1132.46 159 1135.62 162.162 1135.62 166.188C1135.62 170.212 1132.46 173.375 1128.44 173.375ZM1200.31 173.375C1196.29 173.375 1193.12 170.212 1193.12 166.188C1193.12 162.162 1196.29 159 1200.31 159C1204.34 159 1207.5 162.162 1207.5 166.188C1207.5 170.212 1204.34 173.375 1200.31 173.375ZM1142.81 173.375C1138.79 173.375 1135.62 170.212 1135.62 166.188C1135.62 162.162 1138.79 159 1142.81 159C1146.84 159 1150 162.162 1150 166.188C1150 170.212 1146.84 173.375 1142.81 173.375ZM1171.56 187.75C1167.54 187.75 1164.38 184.587 1164.38 180.562C1164.38 176.538 1167.54 173.375 1171.56 173.375C1175.59 173.375 1178.75 176.538 1178.75 180.562C1178.75 184.587 1175.59 187.75 1171.56 187.75ZM1157.19 187.75C1153.16 187.75 1150 184.587 1150 180.562C1150 176.538 1153.16 173.375 1157.19 173.375C1161.21 173.375 1164.38 176.538 1164.38 180.562C1164.38 184.587 1161.21 187.75 1157.19 187.75ZM1142.81 187.75C1138.79 187.75 1135.62 184.587 1135.62 180.562C1135.62 176.538 1138.79 173.375 1142.81 173.375C1146.84 173.375 1150 176.538 1150 180.562C1150 184.587 1146.84 187.75 1142.81 187.75ZM1185.94 187.75C1181.91 187.75 1178.75 184.587 1178.75 180.562C1178.75 176.538 1181.91 173.375 1185.94 173.375C1189.96 173.375 1193.12 176.538 1193.12 180.562C1193.12 184.587 1189.96 187.75 1185.94 187.75ZM1200.31 187.75C1196.29 187.75 1193.12 184.587 1193.12 180.562C1193.12 176.538 1196.29 173.375 1200.31 173.375C1204.34 173.375 1207.5 176.538 1207.5 180.562C1207.5 184.587 1204.34 187.75 1200.31 187.75ZM1315.31 58.375C1311.29 58.375 1308.12 55.2125 1308.12 51.1875C1308.12 47.1625 1311.29 44 1315.31 44C1319.34 44 1322.5 47.1625 1322.5 51.1875C1322.5 55.2125 1319.34 58.375 1315.31 58.375ZM1300.94 58.375C1296.91 58.375 1293.75 55.2125 1293.75 51.1875C1293.75 47.1625 1296.91 44 1300.94 44C1304.96 44 1308.12 47.1625 1308.12 51.1875C1308.12 55.2125 1304.96 58.375 1300.94 58.375ZM1286.56 58.375C1282.54 58.375 1279.38 55.2125 1279.38 51.1875C1279.38 47.1625 1282.54 44 1286.56 44C1290.59 44 1293.75 47.1625 1293.75 51.1875C1293.75 55.2125 1290.59 58.375 1286.56 58.375ZM1257.81 58.375C1253.79 58.375 1250.62 55.2125 1250.62 51.1875C1250.62 47.1625 1253.79 44 1257.81 44C1261.84 44 1265 47.1625 1265 51.1875C1265 55.2125 1261.84 58.375 1257.81 58.375ZM1243.44 58.375C1239.41 58.375 1236.25 55.2125 1236.25 51.1875C1236.25 47.1625 1239.41 44 1243.44 44C1247.46 44 1250.62 47.1625 1250.62 51.1875C1250.62 55.2125 1247.46 58.375 1243.44 58.375ZM1329.69 72.75C1325.66 72.75 1322.5 69.5875 1322.5 65.5625C1322.5 61.5375 1325.66 58.375 1329.69 58.375C1333.71 58.375 1336.88 61.5375 1336.88 65.5625C1336.88 69.5875 1333.71 72.75 1329.69 72.75ZM1243.44 72.75C1239.41 72.75 1236.25 69.5875 1236.25 65.5625C1236.25 61.5375 1239.41 58.375 1243.44 58.375C1247.46 58.375 1250.62 61.5375 1250.62 65.5625C1250.62 69.5875 1247.46 72.75 1243.44 72.75ZM1272.19 72.75C1268.16 72.75 1265 69.5875 1265 65.5625C1265 61.5375 1268.16 58.375 1272.19 58.375C1276.21 58.375 1279.38 61.5375 1279.38 65.5625C1279.38 69.5875 1276.21 72.75 1272.19 72.75ZM1300.94 72.75C1296.91 72.75 1293.75 69.5875 1293.75 65.5625C1293.75 61.5375 1296.91 58.375 1300.94 58.375C1304.96 58.375 1308.12 61.5375 1308.12 65.5625C1308.12 69.5875 1304.96 72.75 1300.94 72.75ZM1286.56 72.75C1282.54 72.75 1279.38 69.5875 1279.38 65.5625C1279.38 61.5375 1282.54 58.375 1286.56 58.375C1290.59 58.375 1293.75 61.5375 1293.75 65.5625C1293.75 69.5875 1290.59 72.75 1286.56 72.75ZM1257.81 72.75C1253.79 72.75 1250.62 69.5875 1250.62 65.5625C1250.62 61.5375 1253.79 58.375 1257.81 58.375C1261.84 58.375 1265 61.5375 1265 65.5625C1265 69.5875 1261.84 72.75 1257.81 72.75ZM1315.31 72.75C1311.29 72.75 1308.12 69.5875 1308.12 65.5625C1308.12 61.5375 1311.29 58.375 1315.31 58.375C1319.34 58.375 1322.5 61.5375 1322.5 65.5625C1322.5 69.5875 1319.34 72.75 1315.31 72.75ZM1243.44 87.125C1239.41 87.125 1236.25 83.9625 1236.25 79.9375C1236.25 75.9125 1239.41 72.75 1243.44 72.75C1247.46 72.75 1250.62 75.9125 1250.62 79.9375C1250.62 83.9625 1247.46 87.125 1243.44 87.125ZM1272.19 87.125C1268.16 87.125 1265 83.9625 1265 79.9375C1265 75.9125 1268.16 72.75 1272.19 72.75C1276.21 72.75 1279.38 75.9125 1279.38 79.9375C1279.38 83.9625 1276.21 87.125 1272.19 87.125ZM1257.81 87.125C1253.79 87.125 1250.62 83.9625 1250.62 79.9375C1250.62 75.9125 1253.79 72.75 1257.81 72.75C1261.84 72.75 1265 75.9125 1265 79.9375C1265 83.9625 1261.84 87.125 1257.81 87.125ZM1329.69 87.125C1325.66 87.125 1322.5 83.9625 1322.5 79.9375C1322.5 75.9125 1325.66 72.75 1329.69 72.75C1333.71 72.75 1336.88 75.9125 1336.88 79.9375C1336.88 83.9625 1333.71 87.125 1329.69 87.125ZM1315.31 87.125C1311.29 87.125 1308.12 83.9625 1308.12 79.9375C1308.12 75.9125 1311.29 72.75 1315.31 72.75C1319.34 72.75 1322.5 75.9125 1322.5 79.9375C1322.5 83.9625 1319.34 87.125 1315.31 87.125ZM1315.31 101.5C1311.29 101.5 1308.12 98.3375 1308.12 94.3125C1308.12 90.2875 1311.29 87.125 1315.31 87.125C1319.34 87.125 1322.5 90.2875 1322.5 94.3125C1322.5 98.3375 1319.34 101.5 1315.31 101.5ZM1257.81 101.5C1253.79 101.5 1250.62 98.3375 1250.62 94.3125C1250.62 90.2875 1253.79 87.125 1257.81 87.125C1261.84 87.125 1265 90.2875 1265 94.3125C1265 98.3375 1261.84 101.5 1257.81 101.5ZM1243.44 101.5C1239.41 101.5 1236.25 98.3375 1236.25 94.3125C1236.25 90.2875 1239.41 87.125 1243.44 87.125C1247.46 87.125 1250.62 90.2875 1250.62 94.3125C1250.62 98.3375 1247.46 101.5 1243.44 101.5ZM1329.69 101.5C1325.66 101.5 1322.5 98.3375 1322.5 94.3125C1322.5 90.2875 1325.66 87.125 1329.69 87.125C1333.71 87.125 1336.88 90.2875 1336.88 94.3125C1336.88 98.3375 1333.71 101.5 1329.69 101.5ZM1315.31 115.875C1311.29 115.875 1308.12 112.712 1308.12 108.688C1308.12 104.663 1311.29 101.5 1315.31 101.5C1319.34 101.5 1322.5 104.663 1322.5 108.688C1322.5 112.712 1319.34 115.875 1315.31 115.875ZM1329.69 115.875C1325.66 115.875 1322.5 112.712 1322.5 108.688C1322.5 104.663 1325.66 101.5 1329.69 101.5C1333.71 101.5 1336.88 104.663 1336.88 108.688C1336.88 112.712 1333.71 115.875 1329.69 115.875ZM1257.81 115.875C1253.79 115.875 1250.62 112.712 1250.62 108.688C1250.62 104.663 1253.79 101.5 1257.81 101.5C1261.84 101.5 1265 104.663 1265 108.688C1265 112.712 1261.84 115.875 1257.81 115.875ZM1243.44 115.875C1239.41 115.875 1236.25 112.712 1236.25 108.688C1236.25 104.663 1239.41 101.5 1243.44 101.5C1247.46 101.5 1250.62 104.663 1250.62 108.688C1250.62 112.712 1247.46 115.875 1243.44 115.875ZM1315.31 130.25C1311.29 130.25 1308.12 127.087 1308.12 123.062C1308.12 119.038 1311.29 115.875 1315.31 115.875C1319.34 115.875 1322.5 119.038 1322.5 123.062C1322.5 127.087 1319.34 130.25 1315.31 130.25ZM1329.69 130.25C1325.66 130.25 1322.5 127.087 1322.5 123.062C1322.5 119.038 1325.66 115.875 1329.69 115.875C1333.71 115.875 1336.88 119.038 1336.88 123.062C1336.88 127.087 1333.71 130.25 1329.69 130.25ZM1257.81 130.25C1253.79 130.25 1250.62 127.087 1250.62 123.062C1250.62 119.038 1253.79 115.875 1257.81 115.875C1261.84 115.875 1265 119.038 1265 123.062C1265 127.087 1261.84 130.25 1257.81 130.25ZM1243.44 130.25C1239.41 130.25 1236.25 127.087 1236.25 123.062C1236.25 119.038 1239.41 115.875 1243.44 115.875C1247.46 115.875 1250.62 119.038 1250.62 123.062C1250.62 127.087 1247.46 130.25 1243.44 130.25ZM1315.31 144.625C1311.29 144.625 1308.12 141.462 1308.12 137.438C1308.12 133.413 1311.29 130.25 1315.31 130.25C1319.34 130.25 1322.5 133.413 1322.5 137.438C1322.5 141.462 1319.34 144.625 1315.31 144.625ZM1329.69 144.625C1325.66 144.625 1322.5 141.462 1322.5 137.438C1322.5 133.413 1325.66 130.25 1329.69 130.25C1333.71 130.25 1336.88 133.413 1336.88 137.438C1336.88 141.462 1333.71 144.625 1329.69 144.625ZM1243.44 144.625C1239.41 144.625 1236.25 141.462 1236.25 137.438C1236.25 133.413 1239.41 130.25 1243.44 130.25C1247.46 130.25 1250.62 133.413 1250.62 137.438C1250.62 141.462 1247.46 144.625 1243.44 144.625ZM1257.81 144.625C1253.79 144.625 1250.62 141.462 1250.62 137.438C1250.62 133.413 1253.79 130.25 1257.81 130.25C1261.84 130.25 1265 133.413 1265 137.438C1265 141.462 1261.84 144.625 1257.81 144.625ZM1243.44 159C1239.41 159 1236.25 155.838 1236.25 151.812C1236.25 147.788 1239.41 144.625 1243.44 144.625C1247.46 144.625 1250.62 147.788 1250.62 151.812C1250.62 155.838 1247.46 159 1243.44 159ZM1329.69 159C1325.66 159 1322.5 155.838 1322.5 151.812C1322.5 147.788 1325.66 144.625 1329.69 144.625C1333.71 144.625 1336.88 147.788 1336.88 151.812C1336.88 155.838 1333.71 159 1329.69 159ZM1315.31 159C1311.29 159 1308.12 155.838 1308.12 151.812C1308.12 147.788 1311.29 144.625 1315.31 144.625C1319.34 144.625 1322.5 147.788 1322.5 151.812C1322.5 155.838 1319.34 159 1315.31 159ZM1257.81 159C1253.79 159 1250.62 155.838 1250.62 151.812C1250.62 147.788 1253.79 144.625 1257.81 144.625C1261.84 144.625 1265 147.788 1265 151.812C1265 155.838 1261.84 159 1257.81 159Z" fill="#090808"/>
</svg>
